<svg xmlns="http://www.w3.org/2000/svg" viewBox="0 0 519.46 509.37"><defs><style>.cls-1{fill:#fff;}.cls-2{fill:#f39800;}</style></defs><title>lucky-beer</title><g id="レイヤー_2" data-name="レイヤー 2"><g id="レイヤー_1-2" data-name="レイヤー 1"><path class="cls-1" d="M373.34,380.88a67.06,67.06,0,0,1-1.94,15.57c-.87,3.78-.56,7.78-2.3,11.4-1.33,2.75-2,5.86-3.64,8.41A17.66,17.66,0,0,1,359,422c-4.32,2.45-8.75,4.75-13,7.39s-8.72,3.95-13.19,5.62c-5,1.85-10,3.63-15,5.15-8,2.42-15.85,5.25-24.11,7-8.47,1.77-17.15,2.21-25.5,4.51-1.88.52-3.88.25-5.82.4-5.27.43-10.38,2-15.74,1.93-3.86-.05-7.63,1.29-11.58,1.06a74,74,0,0,0-13.23.05c-5.87.72-11.24-1-16.76-2.22a3.54,3.54,0,0,1-2.1-1.5c-3.64-4.68-7.94-8.77-11.5-13.52-2.34-3.13-4.93-6.07-6.77-9.55-.21-.38-.58-.75-.61-1.15-.08-1-1.78-2.27-.26-3s1,1.31,1.51,2c3.16,4,6.16,8.13,9.25,12.18s6.66,7.57,10,11.37c1.71,1.95,4.52,1.64,6.78,2.52a16.44,16.44,0,0,0,8,.65c5.86-.62,11.72.75,17.62.34a38.86,38.86,0,0,0,4.91-.5c7-1.43,14.11-1.85,21.13-2.84s14.05-2.33,21.15-3.05a87.05,87.05,0,0,0,21-4.46c6-2.19,12.16-3.65,18.07-6.1,5.44-2.25,11.19-3.85,16.69-6.05a50,50,0,0,0,7.06-3.44,151.48,151.48,0,0,1,14.7-7.89c1.29-.59,1.67-2.25,2.09-3.48,1.53-4.46,4.29-8.45,4.86-13.27.42-3.51,1-7,1.55-10.49.51-3.11,1.06-6.22,1.7-9.31A1.72,1.72,0,0,1,373.34,380.88Z"/><path class="cls-1" d="M225.41,174c2.66-3.07,6.1-5.09,9.43-7.22,5.92-3.8,16.89-1.15,20.21,5,.74,1.37,1.09,3,2.26,4.13a1.52,1.52,0,0,1,.31,2.15c-.76.77-1.42-.07-2-.63-1.9-1.87-3.94-3.59-5.86-5.42-4.7-4.49-11.4-4.72-16.74-.88-.36.26-.77.42-1.14.67-4.1,2.78-4.34,3.66-1.56,7.68a11.46,11.46,0,0,1,1.64,3.82c.19.76.7,2.06-.63,2.49a1.73,1.73,0,0,1-2.45-1.61c-.15-2.36-1.66-3.84-3.06-5.41-4.93-5.53-10.81-8.9-18.54-8A3.17,3.17,0,0,0,205,172c-1.07,1.64-2.81,1-4.17,1.21-1.17.21-1.07-1-.6-1.92a6.8,6.8,0,0,1,6.65-3.41c3.67.23,7.53.26,11.08,1.86C220.57,170.87,223.3,171.8,225.41,174Z"/><path class="cls-1" d="M344.86,245c2.53,1.2,3.73,3.63,5,5.83,1.91,3.31,3.46,6.8,5.56,10,1.73,2.68,2.66,5.88,3.93,8.86A160.8,160.8,0,0,1,366,286.8c1.82,6.11,3.35,12.29,4.67,18.53,1.18,5.6,1.43,11.31,2.52,16.91a34.83,34.83,0,0,1,.55,7.12c-.12,8.79.73,17.54.64,26.32a15.2,15.2,0,0,1-.08,2.14c0,.29-.37.73-.62.76-.45.07-.75-.31-.84-.77a3.55,3.55,0,0,1-.05-.8c.36-5.71-.56-11.37-.61-17.07a235.8,235.8,0,0,0-2.4-27.92c-1-7.5-2.92-14.71-4.72-21.94a52.88,52.88,0,0,0-5.28-14.21c-2.11-3.56-3-7.64-4.83-11.28-1.77-3.43-4-6.65-5.62-10.13a62.26,62.26,0,0,0-4-7,3.85,3.85,0,0,1-.43-2.56Z"/><path class="cls-1" d="M344.94,244.93a3.38,3.38,0,0,0-3.27,1.35,15.84,15.84,0,0,1-13.6,6.08,14.12,14.12,0,0,0-9.5,3.24c-3.16,2.44-6.66,3-10.33,3.29a71.79,71.79,0,0,1-9.16,0c-1.68-.1-2.59,1.15-3.92,1.64a13.65,13.65,0,0,1-4,1.33c-4.41.22-7.53,3.18-11,5.23a16.56,16.56,0,0,1-9.66,2.05c-.6,0-1.18-.33-1.15-.82s.62-.82,1.23-.76c5.67.55,9.74-2.88,14.12-5.61,2.58-1.61,6-1.11,8.47-2.38s5.09-2.59,8.05-2.77c3.9-.23,7.81.47,11.7-.48a11.68,11.68,0,0,0,5.1-2.5,13.06,13.06,0,0,1,9.78-3.37,19.51,19.51,0,0,0,11.52-3c.79-.46,1.79-1,.62-2.66a9.41,9.41,0,0,1-2.06-5.94c.06-1.67.5-3.94-.57-5.78-.66-1.14.09-1.92,1.27-2.74.57,2.55,2.22,4.45,2.52,7,.35,2.92,2.76,5,3.72,7.7Z"/><path class="cls-2" d="M248.12,383c.34-.72.55-.94.53-1.14-.39-3.1,1-5,3.74-5.13.73,0,1.38.64,1.06,1.18-1.16,2-1.31,4.8-4,5.52-1.38.38-1.38,1.14-1.27,2.1.47,4.19,1.41,8.32,1.66,12.55.11,1.8.4,1.82,3.5,1.53a36.62,36.62,0,0,1-.83-11.47c.19-3.66,1.41-6.89,5-8.67a5.31,5.31,0,0,1,6.81,1.74c.42.57.56,1.56,1.69,1.36a1.09,1.09,0,0,1,1.38.94c0,1.19-1.41,1.35-2,2.15a1.06,1.06,0,0,1-1.57-.41,10.28,10.28,0,0,0-.7-1.41c-1.85-2.81-5.12-2.75-6.78.17a6,6,0,0,0-1,2.67c-.05,3.9-1,7.83.47,11.7,1,2.64,0,4.15-2.68,4.54-1,.15-2,.72-3.11.6-1.56-.17-2.75-1.11-2.77-2.4-.06-6-1.87-11.79-1.93-17.79,0-1.15-.76-2.31.76-2.87C247.88,379.74,247.49,381.79,248.12,383Z"/><path class="cls-1" d="M144.47,169.77c8.49,0,12.64,5.34,11.47,13.53-.37,2.61-.79,5-2.33,7.12-.35.48-.8,1.41-1.57,1s-.46-1.25,0-2c2-3.47,2-7.34,1.48-11.08-.52-3.54-6-5.89-10.21-5.26-5.09.77-8,4.18-10.56,8-1.63,2.46,0,8.68,2.59,10.73.28.22.67.33.87.59.51.7,2.32.58,1.64,1.94s-2.15.89-3.16.55a5.83,5.83,0,0,1-3.58-3.3,18.82,18.82,0,0,1-1.56-9.54c.19-2,.54-3.87,2.64-5.1,2.3-1.36,3.51-4,5.94-5.42A10.92,10.92,0,0,1,144.47,169.77Z"/><path class="cls-2" d="M304.78,341.38c2.69-.63,3.65-2.78,4.72-5,3.61-7.61,5.26-15.9,8.46-23.64.71-1.71,1.9-3.27,2.34-4.94.55-2.14,3-3,3-5.38,0-.43.67-.54,1.13-.44.93.21.69,1.06.52,1.51-.6,1.64-1,3.45-1.69,4.94-2.71,5.58-4.2,11.6-6.77,17.23-1.8,3.95-2.89,8.22-4.35,12.32a11.89,11.89,0,0,1-1.63,3.51c-1.22,1.48-3.31,1.5-5,2.29-.66.31-1.54,0-2.31.44-.5.29-1.36.4-1.68-.23s-.34-1.55-.06-1.78c2.13-1.67,1.91-4.33,2.95-6.44.06-.12.3-.16.48-.25C305.82,337.48,303.91,339.39,304.78,341.38Z"/><path class="cls-2" d="M217.58,344.17c.08,2.4-1.55,3.46-3.22,3.83-3.75.82-7.41,2.09-11.3,2.27a8.75,8.75,0,0,1-7.55-4.79c-3.06-6.63-4.26-13.65-4.82-20.84-.13-1.7-1.16-3.38.52-4.93.43-.39.59-1.21,1.33-1s.86,1,.87,1.74a44.27,44.27,0,0,0,.49,8.75,92.56,92.56,0,0,0,3.69,13.08c1.41,3.88,6.44,5.84,11.11,4.56,1.33-.36,2.85.22,3.87-.58s3.41-.57,2.43-3.05c-.16-.43.55-1.16,1.31-.85S217.88,343.22,217.58,344.17Z"/><path class="cls-2" d="M235.34,339.76c-1.4,1.07-2.18,3-4,4.24-4.22,2.83-8.69.94-10.91-2.07a45.83,45.83,0,0,1-6.2-11.45c-.7-1.91-1.14-4,1.29-5.58.9,2.48,1.7,4.87,2.61,7.22,1.45,3.69,3.19,7.26,6.72,9.39,2.65,1.61,5.65.61,7.28-2.17.56-.95,1.66-1.08,2.25-2.13.94-1.65.82-3.37,1.1-5.19a2.5,2.5,0,0,1,2,2.47c.31,2.12.49,4.59,3.81,4,.77-.14,1.6.35,1.38,1.16a1.87,1.87,0,0,1-2.29,1.28,2.3,2.3,0,0,0-2.38.35C236.29,342.34,236.73,339.79,235.34,339.76Z"/><path class="cls-2" d="M267.52,330.59c.18,1.88-.83,3.06-2.1,4.07-3.2,2.53-7.08,3.54-10.93,4.17-2.49.41-5-.95-7-2.53-5.57-4.38-7.64-10-5.75-17a8,8,0,0,1,2.26-3.75c.42-.42.79-1.05,1.54-.43a1,1,0,0,1,0,1.59c-2.44,2.43-1.39,5.52-1.73,8.38-.79,6.74,8.15,12.39,13.67,10.15,2.5-1,4.95-1.72,5.82-4.65a2.54,2.54,0,0,1,.83-1.31c.72-.5,1.4-1.49,2.37-1.13S267.64,329.65,267.52,330.59Z"/><path class="cls-2" d="M286.06,394.13c.13-2.89-.67-5.58-.9-8.39A99.21,99.21,0,0,0,282.55,370c-.62-2.54-1.58-5-1.76-7.66,0-.63-.84-1.38.19-1.74.88-.32,1.6,0,2.14,1a17.19,17.19,0,0,1,1.88,6.71c.26,3.72,1.65,7.16,1.95,10.86.35,4.43,1.41,8.79,1.86,13.22.14,1.36.47,1.53,1.56,1.43a14.74,14.74,0,0,1,1.88,0c.42,0,.94-.05,1,.58s.22,1.1-.3,1.46c-1.63,1.11-3.36,2-5.39,1.64S287,395.08,286.06,394.13Z"/><path class="cls-1" d="M155.94,353.58c1.21,5.48,2.3,10.95,3.64,16.35,1.2,4.84,3.29,9.39,5,14.08,2.77,7.7,6.92,14.71,10.53,22,.31.62,1.21,1.55.24,2.1-1.2.68-1.35-.72-1.76-1.38a152.14,152.14,0,0,1-11-22.18,118.52,118.52,0,0,1-5.88-17.35c-.87-3.7-2.08-7.48-1.92-11.41C154.77,354.84,154.55,353.74,155.94,353.58Z"/><path class="cls-1" d="M290.54,170.66a1.37,1.37,0,0,1-.46,1.49c-.58.51-.92.06-1.36-.27a14.65,14.65,0,0,0-7.81-3.3A21.76,21.76,0,0,0,268,171.76c-3.4,2-5.53,5.11-7.36,8.48-.75,1.39-1.49,2.78-2.27,4.14-.3.52-.62,1.2-1.42.75a1.21,1.21,0,0,1-.59-1.61c3.3-7.36,7.17-14.39,15.64-16.71,5.23-1.44,10.68-2.18,15.7,1.24A12,12,0,0,1,290.54,170.66Z"/><path class="cls-2" d="M262.39,303c1.26,1.17,2.48,1.88,3.11,3.63,1.28,3.5,2.09,7.14,3.41,10.64a25.81,25.81,0,0,1,1.06,6.44c.3,3,1.12,5.87,1.31,8.85s2.34,4.08,4.92,2.56c.95-.55.14-1.7.79-2.54a2.36,2.36,0,0,1,1.5,2.51,1.84,1.84,0,0,1-1.95,1.79c-.43,0-.81.68-1.28.87-4.56,1.84-6.34.68-6.64-4.24-.53-8.52-2.61-16.71-5.11-24.84C263,307,261.62,305.41,262.39,303Z"/><path class="cls-2" d="M314.71,365.52c-3.67,3.53-5.88,7.37-4.11,12.15.9,2.41,1.92,4.9,4.27,6.47,3.08,2.05,6.5,1.67,9.64.88,3.45-.86,4.3-4.52,5.85-7.52,1.24,4.09-.67,8.65-4.17,9.71-4.46,1.35-8.81,1.86-13.1-1.2-5.66-4-6.41-9.87-4.32-15.44C310.32,366.41,311,366,314.71,365.52Z"/><path class="cls-1" d="M205.53,202.2c1.75,4.56.06,8.58-2.52,11.84-3.91,4.94-9,8.81-15.67,8.79a15,15,0,0,1-10.24-3.46,5.39,5.39,0,0,1-1.93-3.79c0-.41-.14-1,.41-1.13s.86,0,1.26.58a12.52,12.52,0,0,0,3.27,3.72,11.88,11.88,0,0,0,12,.8,21.88,21.88,0,0,0,9.36-7.51c1.43-2.1,1.7-4.42,2.05-6.7A4.16,4.16,0,0,1,205.53,202.2Z"/><path class="cls-2" d="M224,395.85c-.37,4.28-1.7,8.07-5.76,10.39a41.63,41.63,0,0,0-3.52,2.3c-2.63,1.88-5.27.56-7.6-.84s-4.07-3.28-3.56-6.37c.13-.76.23-1.51,1.1-1.53.69,0,.89.64,1.07,1.3,1,3.62,5.69,5.82,9.14,4.48,4-1.56,6.16-4.57,7-8.68a3.83,3.83,0,0,0-1.58-4c-.74-.59-1.7-1.36-.72-2.42,1.13-1.21,1.81,0,2.65.61A4.48,4.48,0,0,1,224,395.85Z"/><path class="cls-2" d="M278.76,396.48c.47-.94.81-1.64,1.17-2.33s1-1.14,1.75-.81a1.65,1.65,0,0,1,1.05,2.07,7.81,7.81,0,0,1-3,4,2.44,2.44,0,0,1-3.12-.26c-4.54-4.45-6.76-9.76-6.08-16.16a2.16,2.16,0,0,0-.06-1c-1-2.79.82-4.65,2.3-6.59a1.42,1.42,0,0,1,1.94-.2c.52.33.25.91,0,1.41A16.12,16.12,0,0,0,278.76,396.48Z"/><path class="cls-2" d="M239,403.2c-.15,1.43-2.91,2.68-4.64,2.25a7.08,7.08,0,0,1-5.54-5.76,63.38,63.38,0,0,0-1.72-6.57c-.32-.94-.52-2.7-2.51-1.6-.77.43-1.55-.21-1.65-1.2a24.52,24.52,0,0,0-1-4.86,1.28,1.28,0,0,1,1-1.83c1.14-.23.86.72,1.07,1.35.55,1.63.5,3.72,3.37,3.36,1.85-.24,2.26,1.45,2.52,3.05.4,2.48.48,5,1.53,7.41,1.41,3.25,2.23,3.91,5.82,3.61C238,402.35,239,401.93,239,403.2Z"/><path class="cls-2" d="M308,364.31c-1.17,3.3-2.05,6.68-3.82,9.73-.44.76-.88,1.52-1.27,2.3-1.49,3-1.47,2.94,1.58,4,1.4.5,1.84,1.83,2.2,3s-.43,1.55-1.38,1a20.75,20.75,0,0,1-2.71-2.08,3.3,3.3,0,0,0-1.54-.95,3.52,3.52,0,0,1-2.37-4.78c1.23-3,4-5.14,5-8.34a48.27,48.27,0,0,1,2-4.55c.32-.74.79-1.23,1.61-1S307.55,363.77,308,364.31Z"/><path class="cls-2" d="M204.08,371.93c0,.59.21,1.26,0,1.62-2.12,3.14-1,5.55,1.44,7.91a34.29,34.29,0,0,1,6.88,9.69,11.25,11.25,0,0,1,.81,7c-.49,2.49-2.43,3.27-5.17,2.29a1.24,1.24,0,0,1,.06-.51c.66-1.33,3.16-.83,3-2.88a13.35,13.35,0,0,0-2.21-7.42,33,33,0,0,0-4.28-4.87c-3.05-2.81-3.35-6.64-3.08-10.48C201.63,373.08,202.77,372.35,204.08,371.93Z"/><path class="cls-2" d="M207.36,376.78c.31-5.38,2.78-7.74,8.6-6.58a15.23,15.23,0,0,1,2,.57c.76.26,1.79.6.63,2-1.51,1.79-1.7,2-3.65.63a3,3,0,0,0-3.21-.11c-1.64.74-1.55,2.47-1.45,3.36.15,1.25-.06,3.05,1.68,3.86,1.12.51.33,1.34,0,1.92-.53.87-1.12.56-1.72,0C208.57,380.73,206.92,379.1,207.36,376.78Z"/><path class="cls-2" d="M278.13,327.19c-1.18.73-1.66.25-1.86-.35a2.63,2.63,0,0,1,.14-2.32,1.55,1.55,0,0,1,1.93-.51,19,19,0,0,1,5.27,3.42c1.39,1.08,2.69,2.28,4,3.45,1.56,1.37,3.3.6,5,.38a9.09,9.09,0,0,1,1.52-.32,1.3,1.3,0,0,1,1.25.83c.19.47-.21.83-.54,1.12-1.37,1.21-3.06,1.25-4.76,1.54-4.37.73-5.78-3.37-8.65-5C280.2,328.68,279.18,327.66,278.13,327.19Z"/><path class="cls-2" d="M319.87,383c-2.47,0-5.09-3.56-4.5-5.8a1.42,1.42,0,0,1,1.28-1.16,50.33,50.33,0,0,1,7.55-1.1c1.9,0,3.72-.22,4.09-2.66a1,1,0,0,1,1.07-1c.72.08.91.66,1,1.34.41,2.59-.29,3.37-3,3.95s-5.27.37-7.71,1.52c-.62.29-1.86-.3-1.62,1.09s1.57,1.18,2.51,1.37c.4.08,1-.36,1.36-.71.64-.62,1.22-.8,1.75,0a1.2,1.2,0,0,1-.44,1.84C322.13,382.31,321.19,383.54,319.87,383Z"/><path class="cls-2" d="M229,337.89a4.29,4.29,0,0,1-2-.38,1.29,1.29,0,0,1-.82-1.45c0-.75.54-.73,1.09-.84,3.46-.75,4.33-1.74,4.25-5.16-.09-4,.59-8.14-1-12.07a1.37,1.37,0,0,1,.83-2c1-.18,1.06.79,1.27,1.6,1.06,4,1.07,8.18,1.57,12.27.31,2.62-1.18,4.7-2.37,6.79A2.81,2.81,0,0,1,229,337.89Z"/><path class="cls-1" d="M188.11,170.08c-1.21-.31-1-1-1.16-1.6-2.25-8.53-7.78-12.24-15.48-12.95-3.84-.36-8.33-.23-11.64,2.95-.49.48-1.23.87-1.6.3-.53-.8.48-1,1-1.43,2.83-2.72,6.28-2.88,10-3.32,5.1-.61,9.06,1.31,12.85,3.95C186.06,160.81,187.93,165,188.11,170.08Z"/><path class="cls-2" d="M294.9,313c.78-.35,1.55-.53,2-.09,3,3.14,7.51,3.64,10.84,6.29,1.38,1.09,1.27,1.83,1.24,3.3-.06,3.31-2.54,5.7-2.95,8.83a1.29,1.29,0,0,1-1.32,1.2c1.07-2.5-.09-5.06,1.24-7.52,1.1-2,.33-3.61-1.79-5a17.28,17.28,0,0,0-4.77-2.64A6.44,6.44,0,0,1,294.9,313Z"/><path class="cls-2" d="M262.62,318.58c-1.14,3.49-1.2,3.51-4.57,1.64s-4.4-1.58-6.61,1.74a3.32,3.32,0,0,0,0,3.71c.37.73.95,1.61,0,2.09-1.11.57-1.33-.62-1.74-1.34-2.15-3.83-1.09-7.71,2.73-9.68a5.59,5.59,0,0,1,5.71.45A6.52,6.52,0,0,0,262.62,318.58Z"/><path class="cls-2" d="M305.43,392.64a2.46,2.46,0,0,1-2.44-.86c-1.64-1.85-3.28-3.89-6.28-2.88-.39.13-1,.12-1.15-.39a3.22,3.22,0,0,1,.89-2.91c.33-.44.66-1.05,1.46-.51,1.57,1.06,3.59,1.49,4.87,2.91,1.57,1.74,3.24,1.73,5.27,1.15a11.51,11.51,0,0,1,3.43-.16,1.18,1.18,0,0,1,1.14,1.24c.05.75-.65.63-1,.91C309.62,392.7,307.07,391.61,305.43,392.64Z"/><path class="cls-2" d="M238.22,386a8.14,8.14,0,0,1,3.08-.26c.86,0,1.3-.57.88-1.13s-.62-1,.22-1.38a1.34,1.34,0,0,1,1.84.51,2.56,2.56,0,0,1-1.62,4.13c-1.41.41-2.23,2-4,1.83-.52,0-.27.84-.4,1.28-.18.62.4,1,.25,1.51-.23.77.59,2-.61,2.28s-1.74-1-1.86-1.78c-.3-1.84-1-3.63-.28-5.63C236.23,386.06,236.62,385.49,238.22,386Z"/><path class="cls-2" d="M313.62,372.65c.85-1.83,1.6-3.4,2.31-5,1-2.27,2.95-2.64,5.09-2.32s3.15,2.11,3.91,3.89c.28.65.37,1.75-.49,2.18-1.17.58-2.48,1.24-3.78.73-.78-.3-.69-1.09.2-1.51,1.15-.53.94-1.33.37-2.15s-1.41-.59-2.1-.24c-1.26.63-2.52,1.61-2.61,3C316.37,373.36,315.17,372.81,313.62,372.65Z"/><path class="cls-2" d="M290.32,302.55a1.25,1.25,0,0,1,.09,1.45c-1.16,2.7-1.73,5.63-3.3,8.18a5.43,5.43,0,0,0-.58,5.17c.58,1.29-.07,1.71-1.09,1.69-2.42,0-3.6-2-2.31-4.11,2.2-3.56,3.39-7.63,5.75-11.09C289.28,303.26,289.4,302.5,290.32,302.55Z"/><path class="cls-1" d="M232.63,432c0-2.3.79-3.3,2.72-3.28,1.72,0,3.4,1.37,3.11,2.8s-.38,3.5-2.66,3.6A3.13,3.13,0,0,1,232.63,432Z"/><path class="cls-1" d="M262.81,412.07c-2.06-.07-3.45-.4-3.4-2.38,0-1.67,0-3.53,2.46-3.55,1.77,0,2.89,1.44,3,3.54C265,411.62,264.14,412.29,262.81,412.07Z"/><path class="cls-2" d="M268.08,367.42V366c0-.86.19-1.81,1.21-1.62s.9.94.51,1.87a2.62,2.62,0,0,0,1,3,2.07,2.07,0,0,0,2.3-.2c.6-.4,1.26-1,1.77-.17a1.64,1.64,0,0,1-.51,2.15c-1.67,1.34-3.67.85-5.34.44-1-.26-1.42-2-1-3.38A3.17,3.17,0,0,0,268.08,367.42Z"/><path class="cls-2" d="M208.79,340.79c-.32.83-.57,1.29-1.24,1.57-1.36.55-4.35-.19-5.06-1.5a23.89,23.89,0,0,1-1.49-3.35,1.25,1.25,0,0,1,.9-1.68,1.15,1.15,0,0,1,1.55.71,4.47,4.47,0,0,0,4.35,3.54C208.42,340.13,208.57,340.58,208.79,340.79Z"/><path class="cls-2" d="M293.65,372.44c.88-1,1.55-1.74,2.28-2.45.31-.31.55-1,1.23-.52a1,1,0,0,1,.34,1.41,31.11,31.11,0,0,1-4.13,4.82c-.29.24-.65.44-.94.17a3.48,3.48,0,0,1-1.24-3.05c.14-1.18-.55-2.54.62-3.51.45-.37.67,0,1,.36C293.42,370.43,293.15,371.39,293.65,372.44Z"/><path class="cls-1" d="M202.89,303.36c-2.34.65-3-1-3.5-2.64a3.18,3.18,0,0,1,2.38-3.6c1.59-.17,3.26-.33,3.86,1.78a1.39,1.39,0,0,1-.44,1.66c-.78.59-1.26-.06-1.46-.55-.37-.88-.7-1.39-1.71-.8s-.6,1.39-.34,2.08A14.26,14.26,0,0,0,202.89,303.36Z"/><path class="cls-1" d="M154.7,195.34c.05,1.66-3.5,5.76-5.23,6.08-.76.14-1-.29-1.37-.87s-.31-1.22.3-1.54a10,10,0,0,0,4.42-3.93,1.2,1.2,0,0,1,1.39-.54C154.66,194.63,154.69,195,154.7,195.34Z"/><path class="cls-1" d="M253.05,356c-.18,1.16-.26,2.32-2.08,2.35s-2.88-1-3-2.36a2.13,2.13,0,0,1,2.27-2.53C252,353.53,253,354.1,253.05,356Z"/><path class="cls-1" d="M273.05,438.36c-1.47-.13-2.7-1-2.66-2.36,0-1.78,1.82-2.27,3.28-2.39a2,2,0,0,1,2.29,2.23C275.72,437.11,274.94,438.57,273.05,438.36Z"/><path class="cls-1" d="M286.29,356c-2,.37-3.31-.33-3.65-2.19-.26-1.49,1.56-3,3.36-3a2.65,2.65,0,0,1,2.43,3.78.76.76,0,0,1-.83.46c-.42,0-.67-.21-.69-.63,0-.7.06-1.57-.79-1.76-.32-.06-.95.53-1.18,1-.65,1.23,1.14.82,1.2,1.63C286.16,355.42,286.21,355.59,286.29,356Z"/><path class="cls-2" d="M236.28,383c-1.31.34-1.86-.61-2.41-1.72s-1.18-2.62-.49-3.74a1.45,1.45,0,0,1,2.54.35c.55,1.09,1,2.24,1.63,3.28C238.43,382.63,238,383.1,236.28,383Z"/><path class="cls-1" d="M194.47,362.91a1.93,1.93,0,0,1-2.19,2.23,2.66,2.66,0,0,1-2.54-2.81,2.61,2.61,0,0,1,2.77-2.29C194.15,360,194.57,361.36,194.47,362.91Z"/><path class="cls-2" d="M229.39,380.67a3.34,3.34,0,0,1-1.62,3.66,1.64,1.64,0,0,1-2.37-.28c-.69-.88.2-1.46.69-1.64,1.39-.53,1.12-1.59,1.17-2.62s-.39-2.55,1.12-2.49.9,1.62,1,2.6C229.41,380.08,229.39,380.26,229.39,380.67Z"/><path class="cls-1" d="M339,316.34c0-1.73.78-2.65,2.57-2.6.86,0,1.9.26,1.57,1.23-.5,1.44-1.37,3-2.85,3.46C339,318.79,339,317.34,339,316.34Z"/><path class="cls-2" d="M276.28,312.6c.61-.53.73-1.6,1.9-1.84-.05,1.79-1.39,3.32-1.06,5.15.07.38-.41.51-.78.47-.91-.1-1.74-.84-1.67-1.45.13-1.21-1.52-2.36-.23-3.45C276,310.15,275.21,312.52,276.28,312.6Z"/><path class="cls-2" d="M306.93,312.68c2.5.47,4.57,1.4,5.69-1.25.2-.47.71-.4,1.13-.07s.2.68,0,1.07c-.71,1.19-2,1.81-2.67,3.1-.32.64-.89.08-1.37-.11C308.54,315,307.87,314.11,306.93,312.68Z"/><path class="cls-1" d="M429,303.52c-.85-.14-2.4.4-2.28-1.24s1.95-2,3.08-2.32,1.38,1.52,1.47,2.34C431.39,303.64,430.05,303.5,429,303.52Z"/><path class="cls-1" d="M428.34,315.68c.72.3,1.2.86,1.78.15.35-.41.87-.78,1.18,0a1,1,0,0,1-.53,1.35c-1.16.43-2.68.76-3.41-.12a1.91,1.91,0,0,1,1.14-3c.54-.12.72-1.08,1.72-.69C430.19,314.63,429.14,315,428.34,315.68Z"/><path class="cls-1" d="M426.66,290.63c-.58-.21-1.86.48-1.65-.92a2.88,2.88,0,0,1,2.5-2.17c1.13-.17,1.61,1.27,1.55,2.07C429,290.94,427.63,290.56,426.66,290.63Z"/><path class="cls-1" d="M454.43,298c-.47-3.76-.18-7.58-1.38-11.31-2.32-7.15-4.17-14.43-7.62-21.2-2-4-3.54-8.22-7.18-11.19a30.62,30.62,0,0,0-9.81-5.43c-3.81-1.24-7.9-.61-11.86-1.07-8.73-1-16.67,2-24.17,6-3.84,2.07-7.85,1.75-11.73,1.45-7.48-.57-11.61-6.2-15.06-11.95-3.12-5.19-4.08-11.29-5.71-17.09-1-3.62-.84-7.77-4.46-10.27-.67-.47-.15-.94.13-1.35,1.57-2.26,2.26-4.91,3.35-7.38a14.35,14.35,0,0,0,.73-10c-.74-2.39,0-3.85.87-5.52a8.73,8.73,0,0,0,.6-7.46,17.26,17.26,0,0,0-4-7c-2.61-2.47-4.57-5.56-8.18-7.2a35.18,35.18,0,0,0-11.57-3.12,18.43,18.43,0,0,0,1-3.4c.88-8.68-2.27-16-7.62-22.6C328,137.53,324,136.73,320,136c-2.25-.43-4.3-.67-4.25-3.74a5.1,5.1,0,0,0-1.2-2.6c-3.7-5.19-7.78-10.05-13.61-12.93-3.2-1.58-6.63-2.78-10.31-1.72-1.4.4-3.53,1-3,2.56s2.6.67,4,.4a10.18,10.18,0,0,1,5.47.21c8.79,3,13.63,9.71,17.6,17.92a11,11,0,0,0-9,2.36c-.35.28-1.46.77-.57,1.35s1.58,1.25,2.39,1.75c.54.33,1.12-.9,1.74-1.36a8.75,8.75,0,0,1,2.1-1c2.34-.94,4.76-.49,7.13-.49,5.82,0,10,2.88,12.91,7.79,2.48,4.22,3.34,9,4.3,13.67.86,4.16-.23,5.79-3.48,7.13-1.68.68-3.53.85-5.13,1.89-.42.27-2.06,1.35-2.56-.46-.66-2.35-2.28-4.1-3.6-6.07-5.6-8.34-18.81-12.54-28-5.11-1.74,1.4-4.4,1.44-5.41,3.87-.23.57-.85,1-.15,1.57a1.15,1.15,0,0,0,1.86-.07c1.28-1.69,3.25-2.41,4.83-3.68,5.64-4.56,12.7-4.8,18.92-.81a25,25,0,0,1,6.69,6.09A27,27,0,0,1,325,178.3c.18,1.82-.85,3.46-.55,5.26.06.4-.17,1,.42,1.1a.94.94,0,0,0,1.1-.91c.17-3.43,2.27-6.8.31-10.33-.35-.63-.72-1.61.38-2,2.71-1,5.44-2.52,8.19-2.57A29,29,0,0,1,346.44,171c4.73,1.93,7.72,5.68,10.65,9.57s3.18,8,.09,12.58a18.3,18.3,0,0,0-2.05-2.63,10.59,10.59,0,0,0-8.37-2.48,1.73,1.73,0,0,0-1.73,1.68c.07.89,1,1.24,1.86.78,2.94-1.54,5.23,0,7.29,1.74,3.67,3.14,4.69,7,3.39,11.8-2,7.54-4.86,14-13.85,15.24-3.3.46-3.59.39-2.91-2.79.57-2.62.05-5.26-.25-7.88-.07-.7-.49-1.31-1.18-1.13s-.65.78-.65,1.61c0,5.29,1.57,10.73-2.83,15.47-2.33,2.51-5.51,4.4-9.47,3.12-.89-.29-1.48-.59-.55-1.73a10.53,10.53,0,0,0,2.34-7.08c0-.95.22-2.37-1.14-2.22a2.14,2.14,0,0,0-1.69,2.57,3.77,3.77,0,0,1-.1,2.59c-2.91,5.12-6.91,9.13-12.59,10.93-2.79.89-5.72,2-8.78,1.38-8.33-1.63-13.82-6.78-17.68-14.11-3.56-6.74-3.21-13.75-1.94-20.87.12-.71.61-1.42-.28-1.76-1.27-.48-1.22.9-1.36,1.41a36.05,36.05,0,0,0-.81,14.7c.25,1.75,1.52,3.64,1.1,5a16.22,16.22,0,0,1-8.34,10.3c-2.33,1.14-4.91.62-7.31,0-8.32-2.13-14.63-6.45-16.67-15.44a15,15,0,0,0-.78-3.58c-.29-.59-.5-.92-1.11-.77s-1,.39-.71,1.1c.47,1.08.09,2.24.52,3.39,1.21,3.25,1.7,6.5-.28,9.8-.71,1.19-1.62,2.31-2.39,3.37-3.54,4.86-7.37,9.3-14,10.44A19.46,19.46,0,0,1,218,234.29a23.78,23.78,0,0,1-8.9-10c-.6-1.2-1.44-1.82-2.46-1.19-.81.51-.29,1.47.21,2.32a37.38,37.38,0,0,0,5.82,7.22A22.08,22.08,0,0,0,232,239.47c1.65-.18,3.53-.27,5-1.37,4.56-3.38,8.85-7,11.78-12,.82-1.4,1.33-3.12,2.84-4.08,5.37,5.05,11.21,9.1,19,9.17,3,0,5.83-.18,8.18-2.52a22.59,22.59,0,0,0,5.41-7.28c1.93,1.89,2.29,4.45,4.17,6.08s3.33,3.68,5.32,5.06c8.34,5.8,19.24,4.78,27-1.83,1.46-1.23,2.77-2,4.85-1.07,3.86,1.76,7.51.25,11.1-1.26,2.74-1.15,2.32-3.88,3.13-6,.17-.47.32-.94.5-1.46,2.58,1.49,5,.95,7.3-.4a30.16,30.16,0,0,0,3.69-2c.7-.55,1.64-.84,2.21.31,2,4.05,4.12,8,5.36,12.42,1.64,5.78,2.7,11.75,5.68,17.07,1.43,2.54,2.8,5.14,5.51,6.57,8.45,4.46,17,4.82,25.56.38,9.15-4.77,18.81-5.79,28.81-4.29,4.9.73,9.49,2.47,13,6.27,3.7,4,5.64,9.11,7.69,13.94,3.34,7.84,6,16,6.62,24.67.24,3.45.79,7,.47,10.37a157.22,157.22,0,0,1-2.65,18c-.92,4.32-1.88,8.75-4,12.7-1.83,3.37-4.1,6.5-5.93,9.87a57.81,57.81,0,0,1-9.89,12.91c-3.66,3.69-8.2,6.3-12.63,9-6.28,3.82-12.9,7-18.75,11.66A38.65,38.65,0,0,0,384,404.05c-.69,3.46-.56,7.16-2.42,10.4a2.2,2.2,0,0,0,.85,2.74c1,.43.94,1,1.2,1.72.71,2.14.24,4.35.59,6.47.18,1.07.48,2-.18,2.95a22,22,0,0,1-4.38,4.7,107.87,107.87,0,0,1-10.74,7.35c-6.14,3.89-12,8.35-19.1,10.72-5.9,1.95-11.41,5.08-17.17,7.52-7.05,3-14.4,4.62-21.67,6.7-3.65,1.05-7.44,1.29-11.06,2.28-11.9,3.23-24.14,4.43-36.29,6.2-6.87,1-13.83.43-20.74,1a141,141,0,0,1-19.06,0c-4.35-.25-8.72-.2-13.06-.9a60.46,60.46,0,0,0-10.52-1.24,36.4,36.4,0,0,1-8.35-1.07,6.31,6.31,0,0,1-4.86-3.75,18.56,18.56,0,0,1-1.09-6.42c.09-3.54-2-6.26-3.49-9-1.1-2-2.89-3.78-4.18-5.82-5.36-8.49-11.18-16.67-16.16-25.43-2.73-4.8-5.24-9.73-8.12-14.45a77.88,77.88,0,0,1-10.56-27.5c-.63-3.66-.67-7.4-1.31-11a129.9,129.9,0,0,1-2.45-21.52c0-2.64.2-2.85,2.72-2.07,4.3,1.33,8.58.85,12.84,0,8.1-1.69,14.61-6.52,21.24-11.06a5.72,5.72,0,0,0,1.27-1.37,130.86,130.86,0,0,0,9-13.56c4.81-8.73,6.24-17.34,1.46-26.48a35.76,35.76,0,0,0-5.65-7.94,12.13,12.13,0,0,1,1.65,0c6.12,1,12,.83,17.69-2.26,1.91-1,4.24-2,6.57-1.46a16.78,16.78,0,0,0,11.25-1.42c3-1.35,5.58-3.78,9.2-3.52.5,0,1.47.36,1.37-.67-.06-.63-.74-1-1.46-.9-.88.07-1.75.06-2.65.18-3,.4-5.36,2.08-8,3.23a14,14,0,0,1-9,1.07,10.45,10.45,0,0,0-8.19,1.2c-3.08,2.12-6.33,2.71-9.89,3a69.25,69.25,0,0,1-7.8-.34c-1.76-.07-2.89-.2-3.76-1.53a18.57,18.57,0,0,0-5.2-5.74,1.84,1.84,0,0,1-.79-2.32,2.09,2.09,0,0,1,1.86-1.49,23.43,23.43,0,0,0,14.25-8.45c1.26-1.56,3.07-3.06,2.62-5.55-.15-.88.53-.92,1.21-1,8.18-.74,12.37-6.67,16.43-12.73a8.45,8.45,0,0,0,1.08-2.39,1.39,1.39,0,0,0-.66-1.85,1.43,1.43,0,0,0-1.88.91,17.12,17.12,0,0,1-3.91,6.49c-2.47,2.9-5.05,6-9.1,6.58-2.56.36-5.3.88-7.85-.38-.95-.47-2.12-.8-2.51.33a1.63,1.63,0,0,0,1.54,2.13,15.19,15.19,0,0,1,3.27,1.19c-3.09,4.88-6,9.59-12.54,10.29-2,.21-2.31-.47-2.69-1.7-.68-2.25-.46-4.75-1.79-6.81q-2.85-4.4-5.66-8.8a9.91,9.91,0,0,1-1.57-7.7c.25-1.35-.21-2.32-1.41-2.65s-1.67,1-1.88,1.81c-.92,3.47-1,6.76,1.14,10.08,1.77,2.81,3.8,5.48,5.35,8.42,2,3.86,3.49,7.83,1.1,12.38-2.31-2.73-5.73-3.28-7.88-5.68-.44-.48-1.13-.25-1.69.21a2.08,2.08,0,0,0,.47,3.69,28.35,28.35,0,0,1,4.69,2.88c7,5.26,13.83,10.54,18.5,18.21,4,6.54,4.4,13.28,2.1,20.27s-7.25,12.69-12,18.13c-5.06,5.85-12.15,9-19.68,11.08-8.45,2.35-15.38-.64-22.08-5.29-3.19-2.22-5.45-5.29-8-8.07a13.08,13.08,0,0,1-3.55-6.61c-.91-5.14-2.33-10.1-1.86-15.55.38-4.32.68-8.45,2.9-12.21,2.94-4.95,5.86-9.93,9-14.73,3.4-5.12,5.05-10.51,3.86-16.64-.15-.72-.53-1.74-1.1-1-1,1.26-2.52,2.26-2.18,4.43.71,4.47-1.27,8.2-3.89,11.64a95.77,95.77,0,0,0-10.84,17.27,20.58,20.58,0,0,0-1.69,7c-.28,2.92.31,5.76.47,8.62.42,7.46,1.35,14.86,6.35,21,3.85,4.76,7.81,9.38,13.77,11.49a2.29,2.29,0,0,1,1.82,2.67c0,1.6-1,3.12-.53,4.72,1.34,4.63.82,9.39,1.12,14.1A125.67,125.67,0,0,0,140,380.28a92.18,92.18,0,0,0,10.66,28c3.15,5.52,6.37,11,9.37,16.6a197.71,197.71,0,0,0,11.45,18.49c2.66,3.88,4.79,8.14,7.91,11.73a15,15,0,0,1,2.12,3.62c.53,1.17.49,2.41-1,3-2.43.93-4.11,2.86-6.1,4.39a6.52,6.52,0,0,0-2.5,6.75c.81,5,1.54,10.05,2.71,15,.6,2.54,1.33,5.25,4.12,6.71,3.88,2,8.07,3.37,12,5.25,7.56,3.67,15.76,4.46,23.74,6.3a139.52,139.52,0,0,0,15.59,2.43c3.69.42,7.43,1.25,11.13.73a161.07,161.07,0,0,1,25.87-1.56,7.29,7.29,0,0,0,1.87,0c5.94-1.32,12-1.56,18-2.63,6.56-1.17,13.2-2,19.66-3.54a126.59,126.59,0,0,0,20.9-6.64c4.46-1.94,9.22-3,13.71-5.05,6.82-3.06,13.36-6.63,20-10a30.26,30.26,0,0,0,5.26-2.86c3.55-2.73,7.39-5,11.13-7.41,4.13-2.69,8.68-5,11.72-8.92,2.51-3.26,5.39-6.12,8.13-9.13a14.74,14.74,0,0,0,3.29-5.28c1.16-3.45-.73-6.53-.9-9.82-.2-3.92-1.32-7.77-1.81-11.69-.47-3.73-1.55-6.75-5.67-7.93a40.86,40.86,0,0,0-5.55-1.47,2.11,2.11,0,0,1-1.95-2.4,66.67,66.67,0,0,1,1.48-10.67c2.49-9.68,8.64-16.82,16.68-22.39,4.07-2.83,8.5-5.12,12.78-7.63,6.17-3.61,12.16-7.47,17.37-12.56,4.74-4.64,7.54-10.48,11.27-15.75a40.8,40.8,0,0,0,6.6-14.72c.76-3.33,1.3-6.69,1.88-10C454.2,312.08,455.31,305.08,454.43,298Zm-268,173.8c-2.1-.47-3.88-.77-5.6-1.28-1.24-.37-2.06-1.06-.78-2.43a26.62,26.62,0,0,0,2-2.77l1,.49C182.82,468.41,185,469.67,186.44,471.75Zm152.28,15.39c-5.67,1.81-11,4.42-16.56,6.43-6.6,2.39-13.5,3.63-20.24,5.47a66.37,66.37,0,0,1-10.47,2.35c-4.09.45-8.11,1.58-12.21,1.89-3.77.28-7.29,1.71-11.05,2-.95.07-1.93.2-2.9.25-6.49.29-13,0-19.5.4-9,.61-18-.7-27-1.84-10-1.27-19.33-4.74-28.83-7.74a58.76,58.76,0,0,0-6.49-2.05c-4.43-.85-6.07-4-6.69-7.87-.47-2.94-1.05-5.86-1.61-8.78-.14-.74-.39-1.66.34-2.27s1.25.14,1.84.39a102.25,102.25,0,0,0,18.7,5.91,145.14,145.14,0,0,0,22.63,3.6c3.67.21,7.49.72,11.06.62,8.77-.26,17.54,0,26.29-.31a53.38,53.38,0,0,0,9.69-1.54c-3.89,0-7.86-.48-11.64.16-2.87.49-5.49-.37-8.21-.44-1.93-.05-3.79.23-5.68.25a177.72,177.72,0,0,1-24.39-1.45c-4.89-.63-9.83-.79-14.69-1.73-8.26-1.6-16.38-3.63-23.9-7.55a7.52,7.52,0,0,1-2.21-1.42c-1-1.1-1.4-1.75-.07-3.24,2.25-2.5,4.41-5,7.5-6.48.59,1.37-.38,2-1.17,2.43a8.81,8.81,0,0,0-2.23,1.87c-3.07,3-2.78,4.85,1.38,5.61,4.49.82,8.4,3.21,13,3.82,4.88.64,9.43,3.14,14.44,3.59.26,0,.52.25.76.23,4.83-.49,9.5,1.16,14.28,1.05,2.17-.05,4.2.64,6.34.61a131.81,131.81,0,0,0,14.57-.85c2.57-.31,5.44.24,8.18.29,5.06.1,10-1,15-1.55,3.77-.43,7.57-.59,11.34-1.08,4.41-.56,8.81-.75,13.13-2.2s9.14-1.67,13.76-2.13c3.19-.32,6-1.82,9-2.69,6.18-1.8,12.36-3.58,18.62-5.1-18.22,7.75-37.75,11-56.63,16.67a3.2,3.2,0,0,0,2.52,0c.85-.47,1.75-.21,2.63-.31,4.72-.54,9.4-1.34,14.16-1.64,4.12-.26,8-1.84,11.92-3,7.78-2.34,15.33-5.34,23-7.89a141.31,141.31,0,0,0,26.84-11.73c4.16-2.4,8.6-4.38,12.31-7.44,6.23-5.13,13.07-9.48,19-15,2-1.88,4.15-3.75,5.41-6.34a1.81,1.81,0,0,1,1.64-1.09c1.11,3.08,1.19,6.4,1.87,9.6.07.35-.07.76.06,1.07,1.89,4.55-.63,7.75-3.24,11-3.69,4.64-8.4,8.19-12.93,11.87A176.06,176.06,0,0,1,359,477.61a80.47,80.47,0,0,1-7.76,4.33M387,424.12c.21-1.76-1.17-2.76-1.2-4.3,0-.93-.24-1.94.79-2.3a1.55,1.55,0,0,1,2.11,1.18s0,0,.06-.05l0,0a2.63,2.63,0,0,1,2.87.79l.14,0s0,.06,0,.1c3.17.62,3.86,2.86,1.93,5.86-4.5,7-10.49,12.48-17,17.59-4.43,3.48-9.13,6.55-13.71,9.78-5.33,3.77-11.63,6-17.59,8.71a88.53,88.53,0,0,1-11.53,4.07,48,48,0,0,1,8.8-5.1c3.44-1.5,7-2.8,10.44-4.23,2.79-1.15,5-3.15,7.53-4.79,2.92-1.92,5.9-3.76,8.82-5.7,6.89-4.58,13.6-9.29,18.8-15.93,1.45-1.85,2.52-4,4.26-5.66,1.12-1.07,1.7-2.49-.21-3.61a.92.92,0,0,1-.55-1l-.07,0a.1.1,0,0,0-.05,0c-1.11.35-2-.36-2.87-.79l-.09,0h0c-.55.57-1.25-.69-1.89.25A3.26,3.26,0,0,0,389,420.7c1.52.48,2.53,1.36,1.65,3.48-1,2.42-3,4-4.55,5.8a63.79,63.79,0,0,1-17.22,14.19c-2.9,1.6-5.49,3.76-8.29,5.56-4,2.56-7.8,5.36-12.54,6.41a4.73,4.73,0,0,0-1.2.53c-5.89,3.16-12.29,5-18.53,7.27-3.87,1.41-7.68,3.17-11.52,4.66a49.16,49.16,0,0,1-14.42,3.71c-4.26.29-8.44,1.6-12.69,2.18-4.78.65-9.53,1.57-14.34,2.07-5.87.61-11.74,1.14-17.59,1.95-3.92.54-8,1.15-12,.65-3.37-.43-6.61.5-9.92.67a46.73,46.73,0,0,1-8.87-.3A140.75,140.75,0,0,0,208.39,478c-3.59,0-6.86-1.23-10.13-2.36-1.39-.48-3.12-.42-4.32-1.74,5.77-.58,11.22.95,16.77,1.44,2.46.21,4.89.69,7.4.69,7,0,14,.62,20.91.13s13.6-.64,20.38-1.07c7.51-.47,14.88-1.85,22.36-2.48a122.26,122.26,0,0,0,22.06-3.66c4.45-1.21,9.1-1.72,13.52-3.18,6.29-2.07,12.78-3.59,18.76-6.57,3.95-2,7.9-4,11.94-5.71,2.39-1,5-1.25,7.4-2.63,4.6-2.68,9.39-5,13.59-8.37,3.22-2.57,6.71-4.8,10-7.3C382.75,432.3,386.32,429.33,387,424.12Z"/><path class="cls-1" d="M289.15,127.52a15.91,15.91,0,0,0-3.38-10.33c-3-4-6.6-7.28-12.1-7.67a20.56,20.56,0,0,1-5.37-.87c2.59-2.58,4.37-5.38,7.16-7.43a28.6,28.6,0,0,0,7.2-7.19,22.92,22.92,0,0,0,3.66-14c-.31-4.55-2.15-8.13-6.71-9.61-2.12-.69-4.45-1.79-6.62-.71-1.47.73-3,1.48-4.4,2.36-4.18,2.6-7.8,5.61-8.57,11-.81,5.56-.7,11.17-1,16.75a30,30,0,0,1-.56,5.25,23,23,0,0,1-10.34,14.3c-1.77,1.14-3.21,1.46-3.57-1.29-.12-1-1.07-1.39-1.55-2.12-3.92-6.06-15.13-7.85-20.73-3.13-1.79,1.51-2,1.3-2.54-.91-1.16-4.79-3.21-9-8.34-10.68a59.47,59.47,0,0,0-12.13-2.24,23.94,23.94,0,0,0-16.91,4.68c-.9.65-2,1.74-3.57.27a4.67,4.67,0,0,0-3.79-.68c-3.1.76-6.43.69-9.3,2.85a14.2,14.2,0,0,0-1.4-5.55,29.2,29.2,0,0,0-6.73-8.14c-6.5-5.39-13.75-8.08-22.29-5.46a28.35,28.35,0,0,0-9.9,5.54c-3,2.48-5.65,5-6.62,8.91a13.29,13.29,0,0,1-1.51,3.61c-3,5-3.28,10.74-3.63,16.25a55.77,55.77,0,0,0,.41,9.27c.16,1.47-.45,1.86-1.51,2.46-1.66.93-3.8,1.23-5,2.89-5.4,7.85-4.56,16.59-.71,24.38a25.23,25.23,0,0,0,10.09,10.56c.87.51.4.67.11,1a14.79,14.79,0,0,0-2.44,6.31,28.15,28.15,0,0,0,1.87,16c.46,1.09.82,2.23,1.25,3.39-2.82.79-5.32-.49-8.07.07-8.79,1.77-14.79,9.28-13.78,18.23.09.73-.14,1.08-.59,1.16-3.24.51-4.39,3.61-6.63,5.34a3.49,3.49,0,0,0-1.44,3c1.25,6.29,7.52,10.89,13.22,8.06,2.09-1,2.58-.29,3.3,1.29,1.39,3,3.67,4.87,7.14,4.95,1.67,0,3.33.31,3.84,2.17.47,1.7,2,3.11,1.81,4.87a75.63,75.63,0,0,1-1.75,9.55c-1.44,5.84-4.59,10.92-7.44,16.14-1.25,2.28-2.77,4.46-3.36,7.06a10.93,10.93,0,0,0,.53,7.24c1.57,3.05,2,3.3.06,6.12-3.68,5.45-6.17,11.08-4.66,18a20.36,20.36,0,0,0,9.83,13.93,10,10,0,0,0,5,1.42c1.09,0,2-.15,2.25-1.28.34-1.44-1.07-1.63-1.81-1.82-6-1.54-9.09-5.6-10.7-11.38-1.82-6.56-.24-12.18,3.53-17.57a43.6,43.6,0,0,1,5.66-6.66c.61-.58,1.16-1.2.54-2.07a1.67,1.67,0,0,0-2.18-.44,25.9,25.9,0,0,0-2.58,1.51c-.81-2.41-2.5-4.56-1.36-7.19a57.18,57.18,0,0,1,4.47-8,43.53,43.53,0,0,0,4.67-8.73c1.51-4.25,1.76-8.74,2.5-13.12.54-3.18.57-6.66-3.06-8.69-.88-.49-1.17-1.46.23-2.22s3.28-1.42,4-3.24c.26-.63,1-1.31.18-1.86a1.37,1.37,0,0,0-1.85.34,9.88,9.88,0,0,1-4.37,2.22c-4.78,1.5-8.15-.3-9.38-5-.21-.78.25-.79.63-1.13,3.82-3.41,7.8-6.09,13.22-3.61.41.19.94.89,1.36.2a1.61,1.61,0,0,0-.25-2c-1.77-2-6.67-3.45-9-1.88q-4.56,3.12-9.09,6.28a8.46,8.46,0,0,1-8.49,1,3.23,3.23,0,0,1-2.07-2.57A6,6,0,0,1,99,220.66c1.44.34,2-.57,2.61-1.34.8-1-.5-1.7-.91-2.06-2.33-2-2.86-3.51-1.9-6.41a15.87,15.87,0,0,1,14.41-10.48c2.85-.06,5.75-.31,7.91,2.12a6.19,6.19,0,0,0,5,2.37c.39-.73,0-1.18-.48-1.64a28.11,28.11,0,0,1-8.22-16.35c-.51-4.09-1-8.29,1.3-12.19,1-1.79,2.44-2.77,4.35-2.15,4.89,1.58,8-1.29,11.24-4.11a1.62,1.62,0,0,0,.07-2.58c-.9-.87-1.6-.13-2.25.52-1.13,1.12-2.1,2.67-3.77,2.81A17.68,17.68,0,0,1,117,166.58a22.61,22.61,0,0,1-7.68-9.21c-2.44-4.86-2.27-9.86-1.31-15,.72-3.81,3.63-5.56,6.64-7.58,1.53,3.31,2.56,6.67,4.77,9.48s4,6.06,7.72,7.2c.84.26,1.86,1.23,2.61,0s-.61-1.77-1.24-2.24c-4.81-3.57-6.85-9-9.07-14.12-1.18-2.74-1.38-6-1.69-9-.44-4.36.71-8.57,1.5-12.83,1.37-7.35,4.08-13.91,9.44-19.26A6.75,6.75,0,0,1,132,92a91.89,91.89,0,0,1,12.54-1.69c6.19-.23,10.28,3.7,14,8.07a7.61,7.61,0,0,1,1.59,2.71,47.35,47.35,0,0,1,1.58,16.83,27.12,27.12,0,0,1-1.37,7.74c-1.49,3.9-2.83,7.94-5.66,11.21-.49.57-1.34,1.32-.62,2.28s1.67.53,2.51.46a2.91,2.91,0,0,0,2.42-2.18,4.8,4.8,0,0,1,.9-1.57c2.66-3.17,5.15-6.44,5.88-10.68.65-3.81,1.39-7.59.93-11.54-.18-1.6-1.07-3.49.08-5,1.36-1.76,7.94-2.94,10-2,.76.34,1.55.65.52,1.65-2.81,2.75-3.69,6.52-5.1,10-.64,1.59-.2,3.36-.2,5a1.19,1.19,0,0,0,1.38,1.27c.72,0,1.41-.6,1.17-1.16-.79-1.87.64-3.08,1.07-4.6a21.68,21.68,0,0,1,9.73-13.15c5.67-3.57,11.27-4.64,17.68-3.09,6.74,1.64,11.73,5.14,13.35,12.16.82,3.55,2,7.15.69,10.9-1.13,3.15-2.94,6-4.46,8.92a5.67,5.67,0,0,1-3.66,2.92c-1.44.34-2.65,1.44-4.28,1.2-.27,0-.78.48-.9.84-.19.57.44.63.81.82a7.63,7.63,0,0,0,9.7-3c1-1.85,2.17-3.59,3.19-5.42.29-.54.56-.91,1.18-.81,3,.51,6.32.48,8.79,2.2,5.23,3.64,7.38,9.17,7.88,15.36a25,25,0,0,1-1.74,10.61c-.36,1-.3,1.57.64,1.83.51.14,1.36.41,1.58-.47.93-3.74,2.61-7.33,2.72-11.24.14-4.57-1.93-8.53-4.1-12.32-.84-1.46-.88-2.69,0-3.58,3-2.94,5.55-6.36,9.43-8.32,2.64-1.34,5.55-2.43,7.73-4.34,6.69-5.82,11.43-12.74,10.59-22.26-.31-3.56.44-7.1.44-10.64a16.3,16.3,0,0,1,2.75-8.65c2.67-4.4,6.57-6.21,11.65-5.67,2.53.26,4.71,1.88,4.94,4.31a31.27,31.27,0,0,1,0,8c-.5,2.87-1.13,5.87-3.7,7.9a88.28,88.28,0,0,0-11,11c-2.71,3-5.21,6.12-5.61,10.44-.53,5.78,2.74,9.23,7.09,12.1a23.79,23.79,0,0,1,6.95,6.65c4.05,6.07,3.68,12.18.79,18.39-.63,1.35-1.75,2.63-3.78.93-4.49-3.77-9.48-3.53-14.57-1.15-1.51.71-3.1,1.27-4.2,2.58-.33.39-1,1.14-.37,1.45.42.22,1.19.89,1.87.18a5.62,5.62,0,0,1,1-.93c3.09-2,6.42-3.57,10.13-2.53,5.54,1.54,9,5.6,11.58,10.51.4.76.36,1.81,1.66,1.47s.53-1.32.68-2a1.75,1.75,0,0,0-.5-1.45c-.92-1.17-1.68-2.47-2.61-3.63-.77-1-.72-1.33.26-2.29a14,14,0,0,0,3-4.83c2.24-5.67,1.53-11.27-.43-16.7-.81-2.27-1.76-4.88-4.23-6.12a48.07,48.07,0,0,1-6.18-4c-3.45-2.47-5.26-6.42-4.18-9.17a24.26,24.26,0,0,0,1.1-3.35c1-.19,1,1.4,1.8.89,1.57-1,3,0,4.52.08,5.38.5,11.51,5.81,12.91,11.23a23.53,23.53,0,0,1,1.09,5.4c0,.58.26,1.71,1.4,1.56,1-.13.5-1,.66-1.51A6.53,6.53,0,0,0,289.15,127.52Zm-47.27-5.21c-3.54,2.89-7.62,5.33-9.89,9.58-.48.89-1.07,1-1.89.21a16.31,16.31,0,0,0-9.45-4.76c-1.34-.16-1.08-1.18-.82-1.78a13.2,13.2,0,0,0,.6-8.54c-.09-.4,0-.92.23-.86,2.42.65,3.15-2.12,5.22-2.48,1.79-.31,3.52-1,5.09-.86,5.62,0,10.06,2.55,11.66,6.55C243.08,120.51,243.23,121.21,241.88,122.31Z"/><path class="cls-1" d="M425.19,314.21a10.1,10.1,0,0,1-1-7.36c.69-2.62,1.56-5.47-.35-8.17-1.15-1.63-.76-3.68-.45-5.46.75-4.28-.26-7.39-3.7-9.69-1.5-1-1.32-2.41-1.23-3.81s1.36-.67,2.08-1a5.62,5.62,0,0,1,2-.55c.78,0,.72-.67.67-1.18a3.17,3.17,0,0,0-1.18-2.28c-.72-.53-.74.31-1.07.63a3.13,3.13,0,0,1-4.14.34,11.62,11.62,0,0,0-7.88-2.94c-7.35.18-12.69,1.28-17.75,3.8a36.63,36.63,0,0,0-5.87,4,7.54,7.54,0,0,0-3,5.44c-.35,2.65-.38,4.81,1.11,6.95a11.06,11.06,0,0,1,2.23,4.67c1,6.84,3,13.51,3.33,20.5.21,4.86,1.18,9.7,1.45,14.56.37,6.46-.75,12.84-1.33,19.25a5.31,5.31,0,0,0,1.59,4.72c1.32,1.22,2.24-.14,3.32-.42,5.22-1.33,9.17-4.74,12.93-8.28,4.25-4,9.07-7.29,13.52-11,3.29-2.77,4.4-5.15,3.52-9.42-.43-2.06-.91-4.48.64-6.14C427,318.94,426.45,316.77,425.19,314.21Zm-3.09,5.58c-1.7,2-2,5-1.24,7.83.73,2.66.58,5-1.87,6.88-4.11,3.18-8,6.67-12.18,9.75a50.34,50.34,0,0,0-4.73,4.21c-2.11,2-4.15,3.68-7.1,4a1.09,1.09,0,0,0-.26.05c-3.12,1.08-3.49,1-3-2.27.55-3.79.39-7.59.7-11.37a57.25,57.25,0,0,0-.7-14.3c-.62-3.65-.62-7.39-1.21-11.05-1.24-7.76-1.88-15.67-5.34-22.93a7.18,7.18,0,0,1,1.65-7.76c3.86-3.29,8-5.9,13.14-6.82a30.79,30.79,0,0,1,6.92-.94c2.94,0,5.56.19,7.76,2.53.85.91,1.3,1.6,1.13,2.66-.39,2.34.08,4.06,2.47,5.19,2.18,1,2.73,3.5,2.56,5.46s.43,4.06-.6,6a2.4,2.4,0,0,0,.52,2.5c1.72,2.32,1.35,4.71.46,7.16-1,2.84-.37,5.42.94,8C422.91,316.17,423.91,317.65,422.1,319.79Z"/><path class="cls-1" d="M74.78,411.27c-.26-2.8-2-2-2.87-1.78q-4.95,1.25-9.76,3-9.46,3.41-18.83,7a31.82,31.82,0,0,0-10.19,6.43,2,2,0,0,0-.65,2.6,1.93,1.93,0,0,0,2.44,1.15c1.82-.79,3.78-.74,5.63-1.18a62.79,62.79,0,0,0,18.62-8c4.55-2.82,8.93-5.87,14-7.74C74.17,412.41,74.89,411.86,74.78,411.27Zm-39,15.51c9.19-6.75,20-9.93,30.46-13.72C57.1,420,47.38,425.55,35.74,426.78Z"/><path class="cls-1" d="M69.53,122.67q-4-3.21-7.89-6.59a178.93,178.93,0,0,0-15.39-12,12.28,12.28,0,0,0-5.37-2c-2.87,0-4.16,1.74-3.66,4.06.61,2.87,3.12,4.13,5.11,5.38,3.67,2.3,7.55,4.12,11.05,6.86,5.68,4.46,12.54,7.22,18.4,11.51.94.7,1.75.56,1.86-1C73.86,125.76,71.46,124.21,69.53,122.67Zm-7.42-1.24c-6.15-4.22-12.46-8.17-19-11.79a9,9,0,0,1-3.35-3.33c-.28-.46-.89-1-.18-1.63a1.52,1.52,0,0,1,1.7-.27,32,32,0,0,1,10,5.76C57,114.58,62.41,119.26,68,123.83A12.53,12.53,0,0,1,62.11,121.43Z"/><path class="cls-1" d="M148.8,63a2.83,2.83,0,0,0-.16-1c-3.06-9.19-4.74-18.77-7.9-27.93-1-2.78-1.62-5.69-3.64-8-1.28-1.49-2.83-2.26-4.57-1.71-1.5.48-1.43,2.15-1.43,3.54v.8c-.12,4,1.89,7.23,3.53,10.6.91,1.86,2.21,3.57,2.84,5.51A92.64,92.64,0,0,0,145.9,64c.54.89.95,2.28,2.16,1.9S148.73,64,148.8,63Zm-8.69-16.56c-1.23-3.77-3.23-7.29-4.91-10.91-1-2.15-2-4.28-2-6.73,0-.75.05-1.6.79-1.8A1.75,1.75,0,0,1,136,28a23.24,23.24,0,0,1,2,3.4,93.06,93.06,0,0,1,4.49,15.74c.57,3.33,2.27,6.38,2.46,9.9C143.43,53.49,141.33,50.21,140.11,46.46Z"/><path class="cls-1" d="M50.4,341.91a12.65,12.65,0,0,0-5.27,0,107.16,107.16,0,0,0-10.56,2.92c-5.58,1.69-11.34,2.69-16.83,4.77-3.14,1.19-6.23,1.91-6.67,5.95,0,.34-.54.63-1.19,1.34,1.65-.11,2.71-.35,3.86.15a4.88,4.88,0,0,0,3.41,0,69.44,69.44,0,0,0,9.71-3.78c2.11-1.06,4.2-2.47,6.46-2.86,6.14-1,11.36-4.43,17.15-6.3.41-.13,1-.25,1.1-1C51.66,342.17,50.84,342,50.4,341.91ZM36,347.53a83.56,83.56,0,0,0-10.69,4.27,92.66,92.66,0,0,1-8.84,3.14c-.89.31-1.93.39-2.32-.59-.5-1.24.84-1.4,1.53-1.71,6.13-2.81,12.72-4.21,19.15-6.1,2.31-.69,4.57-1.78,7.23-1.21C40.07,346.07,38.08,346.91,36,347.53Z"/><path class="cls-1" d="M486.53,187a17.58,17.58,0,0,0-4.42-.44,37.9,37.9,0,0,0-12.86,4.12,70.32,70.32,0,0,0-15.06,10.47c-2.09,1.81-5,2.43-6.71,5.06a6.53,6.53,0,0,0,6.89-.1,50.49,50.49,0,0,1,9.14-4.27c4.62-1.42,9.5-2,13.88-4.19,3.59-1.79,7.39-3.27,10.12-6.42C488.79,189.77,488.27,187.32,486.53,187Zm-13.67,10.57c-5.48,1.64-11.35,2-16.54,4.82a37.87,37.87,0,0,1,8.21-6.78,51.85,51.85,0,0,1,12.16-6c3.09-.95,6.22-1.93,9.53.11C482.47,193.86,477.81,196.09,472.86,197.59Z"/><path class="cls-1" d="M368.58,43.32c-1.22-1.57-3.31-1.22-5.59.61-6.72,5.4-10.59,12.82-14.14,20.34-2.34,4.94-5.82,9.33-7.12,14.8-.25,1.05-1.07,2.11,0,2.76,1.33.82,1.65-.68,2.17-1.51,1.8-2.91,3.28-6.09,5.47-8.66C355.09,65,360.47,58,365.94,51.07c1.4-1.78,2.87-3.8,3.1-5.63C369.05,44.25,369,43.79,368.58,43.32Zm-1.89,3.35a50,50,0,0,1-3.21,4.79c-4.43,5.6-8.92,11.14-13.4,16.69a9.72,9.72,0,0,1-1.16,1c2.79-5.62,4.57-11.57,8.3-16.48a35.8,35.8,0,0,1,7.69-7.51c.54-.38,1.11-.89,1.65-.49A1.43,1.43,0,0,1,366.69,46.67Z"/><path class="cls-1" d="M494.88,393.83c-4-2.11-8.29-2.7-12.74-2.76-3.19,0-6.42.47-9.54-.53-3.53-1.13-7.26.08-10.79-1a1.11,1.11,0,0,0-1.58.93c-.12.82-.09,1.54.95,1.78,3.33.76,6.13,2.82,9.4,3.77,4.14,1.2,8.43,1.57,12.57,2.67a85,85,0,0,0,8.73,1.55,16,16,0,0,0,1.67,0c1.89-.27,3.87-.76,4.32-2.83S496.32,394.59,494.88,393.83Zm-7.63,3.61c-5.57-1-11.07-2.45-16.62-3.63a3.85,3.85,0,0,1-2.47-1.46c4.94,1.42,10,.44,15,1.23a17.16,17.16,0,0,0,3.72.16c3.18-.2,5.66,1.46,8.6,2.83C492.61,399.16,489.81,397.91,487.25,397.44Z"/><path class="cls-1" d="M412.74,82.18c-2.95-1.14-5.16.32-7.17,2C400,88.78,395.45,94.47,390.3,99.54c-3.54,3.49-6.33,7.74-9.57,11.8.8.49,1.29.46,1.78.12,4.14-2.89,8.47-5.48,12.84-8,5.13-3,9.15-7.29,13.65-11a17.41,17.41,0,0,0,5.32-6.85C415.06,83.72,414.55,82.89,412.74,82.18ZM411.16,87c-6.36,6.48-12.57,13.17-20.88,17.31l-1.12.58c1.23-3.94,4.41-5.92,6.84-8.5,3.93-4.17,7.68-8.51,12.34-12a2.44,2.44,0,0,1,3.34,0C412.69,85.35,411.71,86.46,411.16,87Z"/><path class="cls-1" d="M43.42,218.35c-2.39-1-4.86-1.93-7.28-2.94-4.7-2-9.72-2.82-14.58-4.23a99,99,0,0,0-12-2.71c-2.54-.4-4.72,1-4.67,3s1.87,3.9,5,4.79a89.56,89.56,0,0,0,26.81,4,32.42,32.42,0,0,0,6.06-.38c.45-.1,1.14.62,1.55-.16S43.8,218.52,43.42,218.35Zm-20.57-1c-4.59-.65-9.32-1.45-13.7-3.42-1.28-.58-2.09-1.36-1.93-2.38.12-.82,1.46-1,2.47-1a26.62,26.62,0,0,1,8,1.63c5.5,1.72,11.32,2.31,16.59,4.82a2.3,2.3,0,0,1,1.18,1A63.53,63.53,0,0,1,22.85,217.36Z"/><path class="cls-1" d="M517.67,243.9a9.47,9.47,0,0,0-7-.12c-8.6,3.41-16.78,7.84-25.72,10.43-1.41.41-3.09.66-3.9,2.39-.22.47-1,.83-.63,1.46s1,.4,1.47.28c2.12-.49,4.27-.93,6.34-1.6,5.1-1.66,10.43-2.21,15.67-3.15,4.86-.87,9.58-2,13.66-5,.9-.65,2-1.29,1.94-2.87A2.41,2.41,0,0,0,517.67,243.9Zm-2.86,4.22a37.06,37.06,0,0,1-12.17,3.77c-2.47.41-4.92,1.24-7.6.8l10.46-4.53c2.79-1.21,5.3-3.29,8.66-2.67.82.16,2.08-.39,2.29.72C516.62,247.06,515.56,247.7,514.81,248.12Z"/><path class="cls-1" d="M107.22,480.82c-2-1.06-3.72-.06-5.46.68-4.19,1.76-8.12,4.05-12.14,6.14a90.52,90.52,0,0,0-10,6.25,3.43,3.43,0,0,0-1.75,2.25c-.33,2.1,1.41,3.51,4.78,3.43,2.3-.91,5.38-1.44,7.55-3.14,3.87-3,8.79-4.37,12.25-8,1.78-1.88,3.33-4,5.61-5.46C109.1,482.29,108.07,481.28,107.22,480.82Zm-26,15.83a4.56,4.56,0,0,1,2.49-3.17c5.2-2.88,10.3-5.93,15.5-8.81a50.7,50.7,0,0,1,5.15-2.14C100.91,488,85.74,497.13,81.17,496.65Z"/><path class="cls-1" d="M38.56,284.5c-.21-.8-1-.88-1.76-.84-5.65.3-11.26-1-16.21-.53a107.6,107.6,0,0,0-11.87.45,21.36,21.36,0,0,0-6.3,1.64c-1.6.68-2.76,1.78-2.33,3.67S2,290.6,3.5,290.64a158.33,158.33,0,0,0,19.1-1,56.25,56.25,0,0,0,14.7-3.7C38,285.64,38.79,285.39,38.56,284.5Zm-17.4,3.44c-4.27.56-8.6.45-12.9.89a37.07,37.07,0,0,1-4.43-.35c-.41,0-1,.1-1-.53s.36-.8.75-1a17.54,17.54,0,0,1,7.37-1.63c5.25-.19,10.52,0,15.79-.09,1.29,0,2.41,1.07,3.8.52C27.6,287.43,24.34,287.52,21.16,287.94Z"/><path class="cls-1" d="M56.17,168.06c-3.29-2.55-6.78-4.79-10.29-7-4.05-2.59-7.85-5.59-11.75-8.44A15.64,15.64,0,0,0,27.28,150c-1.12.7-3.13.13-3.56,2.09-.4,1.81.51,3,2,3.88,2.92,1.58,5.88,3.08,8.78,4.69,4.43,2.46,9.14,4.32,13.72,6.47,2.3,1.08,4.71,1.83,7,2.87a1.55,1.55,0,0,0,2-.55C57.74,168.63,56.71,168.47,56.17,168.06Zm-30.4-15c4.07-1.33,6.62.92,8.94,2.5,3.15,2.16,6.62,4,9,7.2C37.79,159.75,31.5,157.48,25.77,153Z"/><path class="cls-1" d="M95.58,89.66c-1.88-2.38-4.57-4.08-6.17-6.59A75.45,75.45,0,0,0,74.3,66c-1.92-1.62-3.79-3.44-5.81-3.67-2.81,0-3.52,1.07-3,3.2a8.69,8.69,0,0,0,1.43,2.77c2,3,4.86,5,7.33,7.47,6,6,14.09,9.28,20.2,15.16.44.42,1,.59,1.42.19S96.05,90.25,95.58,89.66ZM82.8,80c-5.33-3.39-9.56-8-13.91-12.51a7,7,0,0,1-1-1.54c-.27-.49-.38-1.08.17-1.41a1,1,0,0,1,1.24.19c1.59,1.68,3.76,2.58,5.4,4.24,3.9,3.93,8.13,7.55,11.09,12.49C84.15,82.1,83.69,80.59,82.8,80Z"/><path class="cls-1" d="M268.73,1.86c-.39-.79-.33-1.77-1.53-1.83s-2.38-.16-3.09,1a10,10,0,0,0-.91,2.17c-1.08,3.53-.59,7.21-.87,10.79-.56,7,.05,14.13-.68,21.18,0,1.61,0,3.22,0,4.83a1.68,1.68,0,0,0,1.24,1.58c.55.17.8-.46.87-1a103.42,103.42,0,0,1,2.14-11c1.27-5.45,1.91-11,3-16.52C269.6,9.47,270.58,5.58,268.73,1.86Zm-.68,6.26c-.92,6.48-2.84,12.79-3.28,19.36A5.17,5.17,0,0,1,264,29.1c.16-7.27-.4-14.4.78-21.46.24-1.46-.25-3,.51-4.43.23-.45.12-1,.9-1s.91.64,1,1C267.57,4.84,268.29,6.45,268.05,8.12Z"/><path class="cls-1" d="M211.19,52.72c-.83-6.94-1-13.94-1.78-20.88-.27-2.35-.46-4.94-2.49-6.77-1.71-1.54-3-1.16-3.94.92a6.51,6.51,0,0,0-.36,3.91c.92,5.17,2.81,10.12,3.46,15.35.52,4.26,2.17,8.3,2.38,12.61,0,.5-.12,1.11.67,1.21s.87-.45,1.11-.92A10.76,10.76,0,0,0,211.19,52.72ZM208.71,47a3.5,3.5,0,0,1-.06-2.6l0,0v-.08c-1.48-.94-1.12-2.63-1.45-4-1-4-2.68-7.8-2.5-12,0-.43.07-.86.14-1.68,3,1.64,2.69,4.54,3,6.91.5,3.54.54,7.15.78,10.73l.05,0,0,.09A2.71,2.71,0,0,1,208.71,47Z"/><path class="cls-1" d="M445.91,144a11,11,0,0,0-6.55,3.59,61.11,61.11,0,0,1-14.51,12.31,35.63,35.63,0,0,0-5.41,3.73c-.55.48-1.37.8-.75,1.54.41.48,1.12,1.16,2.05.51.64-.45,1.48-.62,2.08-1.11a59.7,59.7,0,0,1,8.9-5.44c3.12-1.74,6.56-2.88,9.66-4.62,2.86-1.6,6-3,7.27-6.53A2.77,2.77,0,0,0,445.91,144Zm.07,4.94a30.6,30.6,0,0,1-9.29,5.76c-.31.12-.7.05-1.18-.65,2.93-2.44,4.9-6,8.84-7.44.69-.25,1.32-.73,1.81.13A1.67,1.67,0,0,1,446,148.93Z"/><path class="cls-1" d="M316.2,16.92c-1.46-.81-2.91,0-4.07,1.08a5.6,5.6,0,0,0-.9,1,49.8,49.8,0,0,0-5.52,14.35c-.94,3.79-.73,7.87-3,11.33a5.16,5.16,0,0,0-.34,1.81c-.14,1.48.11,2.82,1.87,2.88s1.26-1.5,1.45-2.57a8.53,8.53,0,0,1,1.62-4.1c2.9-3.46,4.78-7.52,6.67-11.55a46.46,46.46,0,0,0,3.46-10.41C317.73,19.29,317.55,17.66,316.2,16.92Zm-.41,4.3c-2.25,6.37-4.34,12.82-8.81,18.2-.24-5.65,1.82-10.74,3.83-15.84a9.63,9.63,0,0,1,2.77-3.81,1.26,1.26,0,0,1,1.68-.18A1.28,1.28,0,0,1,315.79,21.22Z"/><path class="cls-1" d="M514,327.47a1.76,1.76,0,0,0-1.63-1.83c-2.15-.12-4.31-.53-6.46.22a74.83,74.83,0,0,1-16.41,3.47c-1,.11-2.29.1-2.26,1.62s1.27,1.44,2.31,1.57c1.52.2,2.89-.65,4.45-.57,3.9.18,7.83-.27,11.61.68,2.78-.4,5.4-.7,7.66-2.6C514.36,329.16,514,328.33,514,327.47Zm-13,2.47c1.79-1.5,6.32-2.44,10.34-2.07C509.74,330.54,505.58,331.3,501.08,329.94Z"/><path class="cls-1" d="M221.71,286.89c-2,.13-4.16,2.62-4.12,4.7a4.74,4.74,0,0,0,4.64,4.94c2.24,0,3.81-2.15,3.76-5C226,289.21,223.66,286.76,221.71,286.89Zm-.15,8c-1.05.18-2.54-2-2.35-3.39a2.53,2.53,0,0,1,2.86-2.45,2.17,2.17,0,0,1,2,1.81C222.84,292.05,223.79,294.5,221.56,294.88Z"/><path class="cls-1" d="M313.44,409.36c-1.88,0-3.93,2.59-4,5a4,4,0,0,0,3.92,4.08c2.81-.08,4.1-1.49,4.12-4.51C317.5,411.3,315.79,409.34,313.44,409.36Zm-.12,7.16a1.62,1.62,0,0,1-1.73-2c.09-1.45.31-2.89,2.2-3,1.74-.12,1.42,1.49,1.86,2.4C315.45,415.26,315.33,416.66,313.32,416.52Z"/><path class="cls-1" d="M320.12,272.91a4.27,4.27,0,0,0-4.23,4.37c0,2.4,1.38,3.7,3.8,3.67,2,0,4.25-2.46,4.24-4.58C323.91,274.06,322.62,272.89,320.12,272.91Zm-1,5.84c-.69-.1-1.54-.77-1.32-1.4.32-.89.33-2.37,2-2.31,1.05,0,2.06.12,2,1.48S320.47,278.39,319.11,278.75Z"/><path class="cls-1" d="M185.66,386.8c-2.4,0-3.79,1.21-3.64,3.65a6.08,6.08,0,0,0,2,3.95c2.33,2.22,3.71,2,5.18-1a5,5,0,0,0,.39-2C189.65,388.84,187.91,386.82,185.66,386.8Zm.88,6.82a2.89,2.89,0,0,1-2.32-2.71c0-1.15.3-2,1.6-2,1.78.08,1.74,1.74,2.13,2.82A1.53,1.53,0,0,1,186.54,393.62Z"/><path class="cls-1" d="M334.89,345.45c-3.1-.08-6.59,2.83-6.63,5.54,0,1.69,2.05,3.55,4,3.56,3,0,5-2.11,5.12-5.48C337.41,347.37,336.13,345.48,334.89,345.45Zm.15,6.21a2.84,2.84,0,0,1-3,1.23,2,2,0,0,1-1.68-2.08c0-1.25.05-2.46,1.68-2.75a4.88,4.88,0,0,0,1.18-.56c2.09-1.08,2.52-.83,2.52,1.56A3.23,3.23,0,0,1,335,351.66Z"/><path class="cls-1" d="M178.46,338.45c-2.35,0-4.22,1.21-4.32,2.73-.15,2.19,2.18,4.79,4.27,4.77,2.5,0,3.71-1.33,3.71-4C182.11,339.71,180.76,338.43,178.46,338.45Zm-.16,5.76a2.16,2.16,0,0,1-2-2.29c0-1.38,1.12-1.35,2.23-1.33.91-.12,1.58.07,1.52,1.37S179.42,344.22,178.3,344.21Z"/><path class="cls-1" d="M337.84,285.27c-2.07-.24-4.49,1.23-4.75,2.9s1.59,4.37,3.23,4.57c1.9.24,3.95-1.62,4.24-3.84A3.34,3.34,0,0,0,337.84,285.27Zm-1,5.37c-.92,0-1.61-.35-1.6-1.33,0-1.41,1.38-1.36,2.09-1.86a1.3,1.3,0,0,1,1.5,1.5A1.83,1.83,0,0,1,336.85,290.64Z"/><path class="cls-1" d="M237.29,355.14c-2.4-.24-4.11,1.81-4.13,4.69,0,1.91,1.49,3.75,3.1,3.79s3.87-3.32,3.88-5.35A2.85,2.85,0,0,0,237.29,355.14Zm1.25,3.34c-.11.49-2.54,3.12-2.89,3-.91-.38-1-1.18-.83-2.57a2.56,2.56,0,0,1,2.41-2A1.29,1.29,0,0,1,238.54,358.48Z"/><path class="cls-1" d="M255.31,419.09c-.54,0-3.27,3.5-3.29,4.2,0,1.24,2.64,3.78,4,3.78,1.58,0,3.45-2,3.47-3.73C259.49,421.41,257.2,419.06,255.31,419.09Zm1.07,5.84c-1,0-1.67-.36-1.75-1.49a1.73,1.73,0,0,1,1.36-2c.87-.1,1.61.59,1.33,1.75C257.19,423.86,257.74,424.9,256.38,424.93Z"/><path class="cls-1" d="M231.28,299.24c-2.2-.16-3.86,1-4,2.87-.25,2.73.35,3.28,3.83,3.56,1.38.17,2.87.52,3.12-1.55S232.81,299.35,231.28,299.24ZM231,304c-.66-.27-1.66-.3-1.63-1.43.15-.66.55-1.31,1.22-1.09a2,2,0,0,1,1.44,1.75C232.11,304,231.54,304.21,231,304Z"/><path class="cls-1" d="M230.15,418a3.11,3.11,0,0,0-3.43,2.84c-.08,2,2.19,4.62,4.15,4.67,1.79,0,2.82-1,2.8-3C233.65,420.37,231.83,418,230.15,418Zm1.15,6.2c-1.4-1.13-2.75-1.77-2.39-3.53a1.14,1.14,0,0,1,1.38-.8C232,420.69,231.65,422.23,231.3,424.15Z"/><path class="cls-1" d="M272.72,282.22a3.8,3.8,0,0,0-3.57,3.76c0,2.18,1.66,4.13,3.55,4.11a4,4,0,0,0,3.95-3.67A4.64,4.64,0,0,0,272.72,282.22Zm0,6.28c-1.48.08-2.15-.56-2-1.95-.12-1.47.33-2.81,1.78-2.76a2.73,2.73,0,0,1,2.44,2.67C275.06,287.79,274.09,288.42,272.75,288.5Z"/><path class="cls-1" d="M257.76,297.63c-2-.07-2.65,1-2.57,2.92s1.66,3.89,3.29,4c.82.06,2.56-2.55,2.54-3.8S259.16,297.68,257.76,297.63Zm.39,4.61a1.1,1.1,0,0,1-.66-1.65.73.73,0,0,1,.62-.15A1.47,1.47,0,0,1,258.15,302.24Z"/><path class="cls-1" d="M240.37,281c-2.2,0-3.44,1.35-3.44,3.73a3.58,3.58,0,0,0,3.8,3.51c1.86,0,3.14-1.43,3.16-3.65C243.92,282.12,242.78,281,240.37,281Zm-.07,5.75c-1,.2-1.88-.85-1.75-2.09.11-1,.27-2.1,1.78-2.08s1.93.39,2,2.08C242.68,286.3,241,286.59,240.3,286.72Z"/><path class="cls-1" d="M266.21,341.67a4.3,4.3,0,0,0-4,4,3.07,3.07,0,0,0,3.07,2.93c1.95-.06,3.92-1.86,3.9-3.56A3.25,3.25,0,0,0,266.21,341.67Zm-.64,5.36c-.86.08-1.66-.16-1.75-1.14a2.31,2.31,0,0,1,1.83-2.47c1.34-.37,1.2,1.2,1.88,1.83A2.23,2.23,0,0,1,265.57,347Z"/><path class="cls-1" d="M340.27,403.6a1.62,1.62,0,0,0-2.16.47c-1.23,1.64-2.11,3.3-1.33,5.5.38,1.06.9,1.44,1.91,1.38,1.17,0,3.56-3.54,3.41-5.24C342,404.65,341.08,404.05,340.27,403.6Zm-1.73,5c-.1-1.22-.46-2.33.79-3a.68.68,0,0,1,.62.3A2.05,2.05,0,0,1,338.54,408.64Z"/><path class="cls-1" d="M255.15,286.38c-1.46-.14-3.18,2.19-3.2,3.9,0,2.16,1.58,2.2,2.79,2.5a3.15,3.15,0,0,0,3.12-3.41A2.82,2.82,0,0,0,255.15,286.38Zm.55,3.51a1,1,0,0,1-.83,1.09,1.18,1.18,0,0,1-.75-1.27c.09-.66.45-1.23,1.15-1.12S255.68,289.42,255.7,289.89Z"/><path class="cls-1" d="M214.56,353c-1.36,0-3,2.14-2.74,4.07a2.72,2.72,0,0,0,3.25,2.35c1.71.1,3-.33,3-2.38C218.13,354.78,216.5,352.91,214.56,353Zm.66,5.08a1.48,1.48,0,0,1-1.36-1.61c.08-.72.23-1.81,1.15-1.75s1,1.28,1.19,2.12S215.67,358.1,215.22,358Z"/><path class="cls-1" d="M283.9,419.59c-1.72.09-3.16.62-2.93,2.82,0,2.26.83,3,3.25,3.07,2.11.07,2.48-1.35,2.62-2.88A2.89,2.89,0,0,0,283.9,419.59Zm0,4c-.41-.07-1.23-.11-1.19-.82a1.13,1.13,0,0,1,1.29-1.06c.54,0,.82.27.79.5C284.68,423.13,284.41,423.71,283.85,423.6Z"/><path class="cls-1" d="M299.21,416.91c-1.83.15-2.44,1.61-2.61,3.12A3.12,3.12,0,0,0,300,423.3c2.54.4,1.92-2,2.23-3.24C302.68,418.49,300.8,416.77,299.21,416.91Zm1.05,4.69c-1.13-.64-1.8-1.2-1.46-2.26a1,1,0,0,1,.92-.25C300.86,419.62,300.14,420.59,300.26,421.6Z"/><path class="cls-1" d="M330.76,330.94c-1.83.11-3.85,2.2-3.54,3.92.26,1.46.8,3,2.73,3,2.11,0,4.24-1.88,4.16-3.61A3.43,3.43,0,0,0,330.76,330.94Zm-.38,5.36c-.93,0-1.63-.38-1.57-1.36a2.29,2.29,0,0,1,2.05-2.29c.89-.07,1.45.82,1.72,1.81C332.18,335.44,331.67,336.3,330.38,336.3Z"/><path class="cls-1" d="M289.22,286.42c-1.42-.19-3.45,2.26-3.41,3.75s2,3.59,3,3.48c1.35-.14,2.92-2.29,2.9-3.78C292.17,287.63,290.94,286.65,289.22,286.42Zm-.07,5.28a1.84,1.84,0,0,1-1.61-1.6c0-.55.17-1.62,1.27-1.6s1.4,1,1.57,1.79A1.16,1.16,0,0,1,289.15,291.7Z"/><path class="cls-1" d="M306.74,349.73c-2-.2-2.73,1.28-3.15,2.84-.27,1,1.77,3.48,2.73,3.56s3.06-2.23,3.11-3.61C309.5,350.66,308.72,349.65,306.74,349.73Zm-.61,4.17c-.57,0-.44-.64-.45-1,0-.78.29-1.44,1.15-1.42.58,0,.37.67.46,1C307.26,353.26,307,353.94,306.13,353.9Z"/><path class="cls-1" d="M166.78,356.17c-2.15-.06-1.81,1.47-1.83,2.78,0,2.43,1.11,4.2,2.77,4.13s1.94-1.57,2-2.88C169.84,358.44,168.08,356.21,166.78,356.17Zm.54,4.72c-.22-.81-1.27-1.43-.52-2.39.26-.33.65-.08.9.19C168.5,359.56,168.27,360.27,167.32,360.89Z"/><path class="cls-1" d="M215.15,423.35c-1.16-.21-4.34,2.72-3.86,3.67a5.3,5.3,0,0,0,3,2.14c1.28,0,3.91-1.72,3.76-2.62A3.55,3.55,0,0,0,215.15,423.35Zm-.53,4.06c-.27.12-.81-.41-.73-.88a1.18,1.18,0,0,1,1.53-1c.36.08.66.45.94.65C216.05,427.1,215.23,427.16,214.62,427.41Z"/><path class="cls-1" d="M299.7,397.62c-1.66,0-3.35,2.53-3.13,4.36a1.93,1.93,0,0,0,2.1,1.94,3.41,3.41,0,0,0,3.44-3.34C302.1,399,301.56,397.58,299.7,397.62Zm.58,3.39c0,.69-.36,1.26-1,1.25s-.52-.76-.53-1.22a1.24,1.24,0,0,1,1.06-1.3C300.52,399.92,300.27,400.55,300.28,401Z"/><path class="cls-1" d="M223.41,407.79a2.81,2.81,0,0,0-2.59,2.81,3,3,0,0,0,2.93,3,3.29,3.29,0,0,0,2.9-2.56C226.73,409.88,224.58,407.58,223.41,407.79Zm.32,4a1,1,0,0,1-.77-1.2c0-.33.07-.75.55-.68a1.15,1.15,0,0,1,1,.93C224.47,411.47,224,411.91,223.73,411.84Z"/><path class="cls-1" d="M350.26,372.05c-.19-1.71-.08-3.9-2.36-3.92-1.68,0-2.63,1.52-2.47,3.38-.12,1.8.51,3,2.51,2.91C349.44,374.37,350.47,373.86,350.26,372.05Zm-2.07,1.25c-.6-1.15-1.47-1.64-.83-2.64.11-.16.53-.34.63-.26C348.91,371,348.76,371.87,348.19,373.3Z"/><path class="cls-1" d="M330.19,390.19a3.25,3.25,0,0,0-3,3.28,2.14,2.14,0,0,0,2.42,2.44,3.13,3.13,0,0,0,2.93-3.48A1.92,1.92,0,0,0,330.19,390.19Zm-.79,4.06c-.51,0-.72-.46-.54-.67.37-.43.24-1.27,1-1.33.47-.05.49.39.49.71A1.25,1.25,0,0,1,329.4,394.25Z"/><path class="cls-1" d="M308.81,279.89c-1.83.07-3.56,1.49-3.6,3.09,0,1,2.72,3.41,3.82,3.08,1.88-.56,1.11-2.69,2-4C310.49,281.16,310.43,279.83,308.81,279.89Zm-.4,4.21c-.7,0-1.05-.5-1.11-1.18a1.11,1.11,0,0,1,.95-1.32c.89-.05.72,1,1.15,1.44C309.3,283.65,309,284.09,308.41,284.1Z"/><path class="cls-1" d="M346.1,349.3c-.62-.38-3.79,2-3.65,2.75.28,1.42.54,3,2.77,3.05,1.86.11,2.47-1.42,2.83-3S347.11,349.92,346.1,349.3Zm-1,4.16c-.52,0-.81-.25-.78-.79,0-.7.37-1.21,1.07-1.24s.43.61.51.94C346,353,345.89,353.49,345.15,353.46Z"/><path class="cls-1" d="M343.24,326.63c-1.9-.19-2.14,1.18-2.07,2.54.07,1.2.31,2.8,1.84,2.71s2.93-.8,2.94-2.76S345,326.57,343.24,326.63Zm0,3.16c-.25-.08-.48-.16-.45-.5,0-.49.42-.69.8-.88a2.6,2.6,0,0,1,.2.71C343.79,329.46,343.71,329.81,343.24,329.79Z"/><path class="cls-1" d="M290.5,278.35c-.18-1.4-.95-2.87-2.92-2.76-1.65.09-2.31,1-2.34,3.29-.06,1.23,1.39,1.91,2.83,2A2.31,2.31,0,0,0,290.5,278.35Zm-2,0c0,.42,0,.89-.61.93a1.31,1.31,0,0,1-1-1.36c0-.57.38-.73.87-.7C288.54,277.26,288.48,277.84,288.48,278.36Z"/><path class="cls-1" d="M379.48,447.4c1.39.82,3.56.57,5.7.7a1.13,1.13,0,0,1,1,1.34c-.09,1-.88.73-1.43.68a12.34,12.34,0,0,1-1.5-.47c-1.63-.37-2.73.76-3.68,1.68s.13,1.84.47,2.83,1.1,1.83,1.49,2.86c.92,2.38-.46,3.09-2,3.74a2.19,2.19,0,0,1-2.88-.65,2,2,0,0,1,.59-2.71c1.71-1.25,1.48-2.51.45-4-.89-1.3-1-2.93-1.78-4.33s1.15-1.17,1.64-1.89C377.9,447.49,378.34,447.51,379.48,447.4Z"/><path class="cls-1" d="M205.72,487.18c-1.79,2.58.32,4.54.95,6.72.3,1,.37,2.11-.9,2.39-1.71.39-2.72-.82-3.14-2.2a13.79,13.79,0,0,1-.09-3.47c0-.95.21-1.94-.66-2.75a1.67,1.67,0,0,1-.12-2.21,1.52,1.52,0,0,1,1.94-.47A4.28,4.28,0,0,1,205.72,487.18Z"/><path class="cls-1" d="M232,495.12c-1.48-1.27-2-3-3.14-4.33a3.55,3.55,0,0,0-3.42-1.19c-2,.21-3.21,1.36-4.17,3.46-.47-1.13-.86-1.73-1.1-2.49a2.88,2.88,0,0,0-3.26-2.12c-2.22.43-4.46.23-6.68.58s-3,1.41-2.09,3.53c.64,1.54,1.46,3,1.35,4.74-.07,1.22.76,1.49,1.52,1.17,2-.88,3.88.43,5.85.46,2.36,0,3.82,0,4.47-2.48,2.71,3.35,6.25,4.17,9.29,2.16C231.9,497.78,233.24,496.16,232,495.12Zm-12.29,1.09c0,.67-.1,1.47-.74,1.53s-.9-.68-.9-1.37c0-2-.86-2.55-2.58-1.41-.42.28-.8.45-1.16,0-.8-.91-1.56-.77-2.6-.32s-1.12-.68-1.31-1.4c-.29-1,.37-1.36,1.06-1,1.14.57,1.19,0,1.23-.83,0-.66-.22-1.48.94-1.52.94,0,1.31.33,1.23,1.24-.06.6.26,1.2.76,1.21s.79-.57.85-1.18A1.25,1.25,0,0,1,218,490c.84,0,.93.85,1.08,1.33.39,1.24,1,2.48.7,3.65C219.73,495.5,219.71,495.86,219.74,496.21Zm8.07,2.27c-1.9-.06-3.86-.37-4.89-2.32-.82-1.52.1-2.88.88-4,1-1.42,4.28-.63,4.82,1,.4,1.24-.26,1.59-1.35,1.53,1.12-1.53-.11-2-1.16-2.38-1.43-.53-2.2.58-2.45,1.58-.46,1.88,1.18.66,1.81,1a11.14,11.14,0,0,0,1.19.42c-.32.61-1.54.92-.86,1.84.43.59,1.4.42,2,.21,1-.37,1.92-1,3-1.32A2.93,2.93,0,0,1,227.81,498.48Z"/><path class="cls-1" d="M327.72,485.61c-1.38-3.44-1.66-7.11-2.18-10.73-.08-.57-.11-1-.86-1.06-1.4,0-2.47.87-3.66,1.34-.67.26-.2,1.38.09,2.16.35.95.34,2.09-.95,2.33s-1.63-.73-1.61-1.85c0-.69.07-1.43-1-1.6-.8.41-1.64.91-2.52,1.3-2,.89-2.81,2.15-1.86,4.36a15.44,15.44,0,0,1,1.65,7.37c-.11,1.46.8,2.2,2.3,2.32,1.83.15,2.75-.51,2.48-2.42-.2-1.4.82-1.8,1.78-2.27a.85.85,0,0,1,1.26.58c.48,3.07,2,1.4,3.2.7C326.79,487.6,328.47,487.48,327.72,485.61Zm-2.15,1c-.43.09-.92.13-1.08-.45-.72-2.57-2.39-1.34-3.71-.82-1.59.63-4.3.59-2.79,3.67a.53.53,0,0,1-.45.78,1.15,1.15,0,0,1-.85-.49,5.24,5.24,0,0,1-.75-2.21,19.49,19.49,0,0,0-1.32-6.42c-.57-1.83.52-2.09,1.48-2.39,1.27-.4,1.27.71,1.42,1.61s.51,2.34,1.93,1.86c1.17-.4,3-.39,2.87-2.44,0-.71,0-1.43,0-2.14s.08-1.44.74-1.52,1.19.57,1.31,1.16c.6,2.91.57,5.94,1.75,8.56C326,486,326.17,486.53,325.57,486.64Z"/><path class="cls-1" d="M341.14,477.87c-2.14-.41-2.79-1.85-2.72-3.85.06-1.83-1.2-2.31-2.44-1.58-1.68,1-3.22,2.09-5.2,2.38a2.8,2.8,0,0,0-1.11.66,5.46,5.46,0,0,0-1,7.1c1.81,2.27,4.15,2.4,6.39,0,.86-.94,1-.33,1.61,0,2.37,1.19,5.51-.43,5.48-2.91C342.25,478.85,342.19,478.07,341.14,477.87Zm-.85,2.35c-.41.52-1.24,1.79-1.8.76-1.69-3.05-2.75-.8-4,.21a2.49,2.49,0,0,1-1,.27,1.93,1.93,0,0,1-2.68,1,1.9,1.9,0,0,1-1.05-2.58c.39-1.29-.15-2.81,1.3-3.83.65-.45,1.43-.94,1.91-.54,2.26,1.89,3.07.51,3.46-1.58a1.48,1.48,0,0,1,.94,1.71,3.17,3.17,0,0,0,2.21,3.5C340.16,479.38,341,479.36,340.29,480.22Z"/><path class="cls-1" d="M198.45,488.2a1.5,1.5,0,0,0,1.38-2c.12-1.4-.31-2.23-1.76-2.15a10.84,10.84,0,0,1-6.62-2.22c-1.14-.75-2.33-.87-2.8.58s-1.06,3.88.28,4c3.81.35,3,3.73,4.48,5.56a15.65,15.65,0,0,1,.93,1.88c.52.9,3.35,1.51,4.07.78,1-1-.27-1.72-.51-2.56-.1-.31-.57-.53-.63-.84C197,490,195.82,488.43,198.45,488.2Zm-3.21,1.56c.24.7.15,1.62.91,2.14a.48.48,0,0,1,0,.86c-.55.45-.89-.05-1-.38a26.45,26.45,0,0,1-1.67-4.87c-.24-1.33-.66-2-2-1.88-.89.06-1.64-.17-1.78-1.18a1.81,1.81,0,0,1,.18-1.27c.35-.46.75,0,1.13.22a42.43,42.43,0,0,0,6.64,2.76C195,486.51,194.4,487.3,195.24,489.76Z"/><path class="cls-1" d="M251.9,494.83A1.94,1.94,0,0,0,250,493.2a3.65,3.65,0,0,1-2.79-1.2,2.59,2.59,0,0,0-4.39,1.33c-.16.56-.29,1.11-.81,1.28-.93.3-2.15.37-1.82,1.73A2.2,2.2,0,0,0,242.9,498c1.45-.15,2.06.48,2.12,2s.55,3,2.65,2.84c2.42,0,3.08-.78,2.45-3.08-.33-1.22-.9-2.43.76-3.06A1.4,1.4,0,0,0,251.9,494.83Zm-3.4,4.8c.23.6.53,1.22-.31,1.51a1.18,1.18,0,0,1-1.5-.78,6,6,0,0,1-.48-1.48c-.32-1.91-1.1-3.19-3.58-2.55,1.37-.38,2-.95,1.85-2.27-.07-1,1.11-2.08,1.5-1,.86,2.33,2.6,1.48,4.31,2C247.12,495.81,247.74,497.71,248.5,499.63Z"/><path class="cls-1" d="M285.5,492.61a2,2,0,0,0-2.31,1.94c-.07,1,1.1,1.24,1.7,1.18,1-.1,2.39-.33,2.46-1.79C287.4,492.78,286.47,492.58,285.5,492.61Z"/><path class="cls-1" d="M293.72,493.14c.88,0,1.61-.22,1.7-1.21s-1-1.32-1.57-1.31a1.43,1.43,0,0,0-1.61,1.57C292.3,493.32,293.05,493.11,293.72,493.14Z"/><path class="cls-1" d="M300,494.73c-1.24-1.29-1.39-3-2-4.58-.77-1.85-2.81-2.39-4.84-1.86a5.64,5.64,0,0,0-3.67,3.17c-1.09-1.64-2.49-2.3-4.22-1.73-1,.34-1.9.06-1.7-.8.6-2.55-1.34-2.05-2.58-2.52-1.73-.65-2.16,0-2.14,1.68,0,3.63.86,7.16,1.14,10.76.1,1.37,1.23,1.48,2.2,1.19,1.15-.34,2.18-1.36,3.31-1.43,2.68-.16,3.74-1.79,4.4-4,1.17,1,.38,3.18,2.45,3.76,2.24.63,6-.36,7.47-2.25C300.11,495.65,300.51,495.27,300,494.73Zm-13,1.61a3.83,3.83,0,0,1-2.53.59,3.16,3.16,0,0,0-1.57.14c-1.91,1-2,1-1.88-1.13.2-2.71-1.87-5.33-.19-8.13.94.26.73,1,.81,1.39.49,2.43,1.34,3.76,4,1.95a1.28,1.28,0,0,1,2,.88C288,493.53,288.69,495.16,287,496.34Zm6.07.58c-2-.33-1.3-2.13-1.75-3.2a3.13,3.13,0,0,1,1.16-3.79,2.33,2.33,0,0,1,2.72-.34,3.63,3.63,0,0,1,1.82,3c-.06,1.18-1.26.91-2.06,1.19s-2.31.47-1.95,1.68c.23.78,1.55.87,2.56,1s1.29-1.27,2.32-.93A5,5,0,0,1,293.05,496.92Z"/><path class="cls-1" d="M259.44,492.09c-2.9,0-4.86,1.71-4.79,4.13.09,2.78,2.5,5.52,4.85,5.52,2.8,0,4.84-1.63,4.8-3.83C264.25,495.2,261.65,492.08,259.44,492.09Zm0,8.53c-1.44-.11-3.2-2.55-3.16-4.38s1.05-2.66,2.89-2.56a4.17,4.17,0,0,1,3.57,4.18A3.22,3.22,0,0,1,259.4,500.62Z"/><path class="cls-1" d="M347.34,470.22c-1.12.16-2.52.57-1.91,2.13,0,1.29-.12,2.6,1.46,2.46a3,3,0,0,0,2.64-2.75A2.13,2.13,0,0,0,347.34,470.22Zm-.52,3.45c-.4-.22-.88-.45-.79-.95a1.61,1.61,0,0,1,1.36-1.36c.42,0,.75.61.72,1.23C348.06,473.47,347.16,473.21,346.82,473.67Z"/><path class="cls-1" d="M354,466.32c-.83,0-1,.89-1,2s.37,1.87,1.52,1.65a2,2,0,0,0,1.68-2.09C356.15,466.74,355.55,466.27,354,466.32Z"/><path class="cls-1" d="M366.7,457.82c-1.23.44-3.31.46-3,2.78.21,1.66-.33,2.28-2.12,1.77-.88-.25-3-1.76-2.29,1.33.13.52-.47.95-1.3.44-1.61-1-3.87-1.19-5-.08-3.11,3.11-7.71,3.72-10.75,7-1.05,1.12-1.23,1.71-.56,2.82a15.87,15.87,0,0,1,2.5,6.85c.17,2.24,1.14,2.42,2.81,2.27l1.68-.6c.86-1,.28-1.95,0-2.95-.19-.6-.74-1.42.31-1.75,1.43-.46,1.9-2,3-2.78.84.77.8,1.84,1.3,2.62.32.5.72,1.35,1.66,1a5.22,5.22,0,0,0,2.65-2.14c.5-.88-.41-1.08-1-1.5-1.7-1.27-1.82-2.35-.37-3.17,2.52-1.44,3.82-3.41,2.89-6.49,5.48.78,3,4.61,3,7.27,1.9-.14,4-.56,4.12-2.41.25-3.54,1.37-6.89,1.74-10.38C368.07,458.7,367.73,457.46,366.7,457.82Zm-18.63,18.5c-2.45.67-1.67,1.79-1.06,3,.35.73,1.08,1.45,0,1.9-.88.36-1.33-.38-1.61-1.28-.71-2.24-1.55-4.44-2.36-6.65-.61-1.67,1.08-2.25,1.71-3.2,1-1.55,3.09-1.45,4.75-1.14,1.32.25,1.34,1.66,1.3,2.83A4,4,0,0,1,348.07,476.32Zm8.88-6.43c-3.41,1.39-3,3.63-1.86,6.4-2-1.92-2.67-4.36-3.1-6.78-.15-.86-1.69-1.38-.61-2.48.88-.9,1.8-1.81,3.12-1.78,1.14,0,2.48-.58,3.28,1S358,469.47,357,469.89Zm7.69.14a1.08,1.08,0,0,1-.86-1.72c1.09-2,.39-3.08-1.64-3.61a1,1,0,0,1-.83-.9c3.89-.46,3.89-.46,4.34-4C367.12,463.39,364.7,466.55,364.64,470Z"/><path class="cls-1" d="M333.52,481.39h0l-.06.09Z"/><path class="cls-1" d="M334.45,478.25a2.2,2.2,0,0,0-2.16-1.22c-1.16.08-1.34,1-1.69,1.76a2.5,2.5,0,0,0,.09,2.52c.86,1.28,1.86-.08,2.8.08a3.93,3.93,0,0,1,.56-.76A1.82,1.82,0,0,0,334.45,478.25Zm-1.82,1.93a1,1,0,0,1-1.1-.88c-.14-.49.3-.75.67-1a1.07,1.07,0,0,1,.85,1.08C333.06,479.72,333.07,480.13,332.63,480.18Z"/></g></g></svg>